<?xml version="1.0" standalone="no"?>
<!DOCTYPE svg PUBLIC "-//W3C//DTD SVG 20010904//EN"
 "http://www.w3.org/TR/2001/REC-SVG-20010904/DTD/svg10.dtd">
<svg version="1.0" xmlns="http://www.w3.org/2000/svg"
 width="1300.000000pt" height="1300.000000pt" viewBox="0 0 1300.000000 1300.000000"
 preserveAspectRatio="xMidYMid meet">
<metadata>
Created by potrace 1.11, written by Peter Selinger 2001-2013
</metadata>
<g transform="translate(0.000000,1300.000000) scale(0.100000,-0.100000)"
fill="#000000" stroke="none">
<path d="M0 6500 l0 -6500 6500 0 6500 0 0 6500 0 6500 -6500 0 -6500 0 0
-6500z m6261 3304 c25 -12 40 -13 82 -5 29 6 121 10 204 8 l153 -2 1 -120 c1
-66 1 -304 -1 -530 -1 -332 -4 -413 -16 -424 -12 -13 -16 -12 -32 2 -21 19
-107 24 -117 7 -10 -17 -151 -12 -165 5 -14 17 -46 20 -55 6 -3 -6 -26 -13
-52 -17 -37 -5 -47 -3 -55 10 -5 9 -17 16 -27 16 -23 0 -33 23 -23 53 5 12 7
83 6 157 -1 74 2 175 7 225 5 50 4 94 0 98 -5 5 -48 6 -95 2 -71 -6 -86 -10
-91 -26 -6 -17 -17 -19 -91 -19 -87 0 -124 -10 -124 -34 0 -18 -31 -25 -79
-19 -58 8 -90 -3 -97 -32 -6 -23 -11 -25 -61 -25 -59 0 -93 -13 -93 -34 0 -9
-19 -16 -56 -21 -44 -5 -57 -11 -66 -30 -8 -17 -22 -25 -55 -30 -33 -5 -47
-12 -50 -26 -3 -12 -14 -19 -29 -19 -13 0 -38 -13 -56 -30 -17 -16 -42 -30
-55 -30 -15 0 -27 -8 -34 -23 -8 -18 -23 -26 -57 -33 -38 -7 -48 -13 -50 -31
-3 -17 -10 -23 -28 -23 -17 0 -27 -8 -33 -24 -7 -17 -20 -25 -52 -30 -45 -7
-55 -2 -61 28 -5 29 -23 30 -53 2 -15 -14 -44 -29 -64 -32 -20 -4 -51 -15 -69
-26 -18 -10 -38 -18 -45 -18 -29 -1 -41 -22 -49 -82 -9 -71 -9 -62 -2 -145 6
-62 6 -63 -20 -63 -21 0 -26 -5 -26 -25 0 -19 -5 -25 -21 -25 -13 0 -23 -10
-30 -30 -8 -22 -17 -30 -35 -30 -19 0 -24 -5 -24 -24 0 -25 -15 -37 -37 -28
-20 7 -15 46 7 60 11 7 20 18 20 25 0 7 19 28 41 47 74 62 79 69 79 106 0 31
-3 35 -22 32 -14 -2 -24 -12 -28 -28 -4 -15 -15 -26 -30 -30 -18 -4 -26 -14
-28 -33 -2 -18 -9 -27 -21 -27 -13 0 -20 -10 -24 -30 -4 -20 -13 -30 -24 -30
-10 0 -24 -9 -31 -20 -8 -13 -23 -20 -42 -20 -19 0 -30 -5 -30 -14 0 -26 -30
-46 -70 -46 -42 0 -70 -8 -70 -20 0 -14 57 -31 96 -28 32 2 40 7 42 26 3 20 9
22 57 22 57 0 70 -8 60 -40 -5 -16 -15 -20 -56 -20 -42 0 -49 -3 -49 -20 0
-18 7 -20 55 -20 48 0 55 2 55 20 0 18 7 20 69 20 53 0 70 -4 75 -15 6 -17
-29 -35 -69 -35 -26 0 -39 -22 -22 -39 23 -23 107 -4 107 24 0 11 7 15 23 13
30 -4 37 -47 8 -55 -27 -7 -27 -33 -1 -40 19 -5 20 -14 20 -227 0 -240 -3
-252 -49 -235 -23 9 -84 5 -104 -8 -20 -12 27 -32 84 -35 l64 -3 3 -82 c3 -83
3 -83 -23 -83 -18 0 -25 5 -25 19 0 25 -5 27 -61 36 -38 6 -47 4 -53 -10 -8
-23 11 -55 34 -55 10 0 22 -9 25 -20 3 -11 17 -23 30 -26 13 -3 25 -15 28 -26
3 -11 15 -22 26 -25 18 -5 21 -13 21 -58 0 -33 -5 -55 -12 -57 -7 -3 -43 -3
-80 0 -57 4 -68 7 -68 22 0 11 -12 22 -30 29 -20 7 -30 17 -30 30 0 16 -6 21
-24 21 -17 0 -26 6 -28 21 -2 14 -16 25 -43 35 -52 18 -55 18 -55 -6 0 -12 10
-25 24 -32 14 -6 26 -20 28 -31 2 -13 13 -23 27 -27 13 -3 29 -14 35 -25 6
-11 19 -26 29 -33 23 -17 22 -49 -2 -57 -22 -7 -91 19 -91 34 0 5 -13 14 -30
20 -19 6 -30 17 -30 28 0 11 -12 23 -30 30 -16 6 -30 18 -30 27 0 10 -8 16
-21 16 -12 0 -37 16 -56 35 -19 19 -44 35 -54 35 -12 0 -23 10 -29 25 -6 14
-17 25 -28 25 -15 0 -21 -10 -26 -46 -3 -26 -6 -63 -6 -82 0 -23 -9 -47 -26
-70 -23 -29 -27 -46 -30 -121 -6 -138 -4 -135 -77 -129 -77 7 -87 3 -87 -32 0
-29 -1 -29 -57 -29 -32 0 -69 -1 -83 -2 -14 -1 -33 1 -42 5 -13 6 -18 4 -18
-7 0 -27 -39 -47 -67 -34 -21 9 -23 16 -19 46 3 20 8 81 11 136 8 122 11 135
36 135 17 0 19 8 19 95 0 85 12 145 30 145 18 0 30 -29 30 -71 0 -53 16 -72
37 -44 28 39 9 128 -30 139 -18 4 -19 11 -14 65 3 38 13 71 26 90 12 16 24 43
27 60 5 24 12 31 31 31 18 0 27 -8 34 -30 12 -33 44 -41 53 -12 3 9 27 24 53
32 81 26 55 57 -49 59 -42 1 -48 4 -54 26 -4 17 -13 25 -29 25 -12 0 -37 7
-55 16 l-33 17 39 23 c30 19 46 22 83 17 l44 -6 -6 38 c-3 21 -15 46 -27 57
-27 25 -25 52 5 72 20 13 25 25 25 56 0 34 4 41 25 46 18 4 25 13 25 29 0 13
5 27 10 30 6 3 10 15 10 26 0 12 7 19 20 19 16 0 20 7 20 35 0 28 4 35 20 35
13 0 24 10 30 24 7 20 17 25 52 28 33 2 45 8 53 26 8 19 17 22 62 22 50 0 53
-2 53 -24 0 -23 -5 -25 -47 -28 -41 -3 -48 -6 -51 -25 -3 -22 0 -23 53 -23 50
0 56 2 65 25 8 22 16 25 55 25 38 0 45 3 45 19 0 13 -11 23 -36 31 -36 12 -36
13 -30 56 5 36 3 44 -10 44 -9 0 -18 -9 -21 -21 -4 -16 -12 -19 -37 -17 -26 2
-31 7 -31 28 0 18 6 26 23 28 13 2 22 10 22 20 0 10 18 36 40 60 22 23 40 46
40 51 0 5 9 13 20 16 14 4 20 15 20 35 0 24 5 29 28 32 21 2 28 9 30 31 3 21
9 27 27 27 17 0 25 6 27 22 2 14 12 24 28 28 16 4 26 14 28 28 2 13 14 27 28
32 14 6 24 18 24 30 0 15 7 20 25 20 18 0 28 7 35 24 5 13 17 27 28 30 10 4
24 18 30 31 7 15 20 25 32 25 12 0 37 16 57 35 20 19 42 35 49 35 8 0 16 11
20 25 5 19 13 25 35 25 21 0 29 5 29 18 0 18 48 42 83 42 9 0 17 10 19 23 2
16 11 23 30 25 15 2 34 11 41 20 17 23 52 42 77 42 11 0 20 7 20 15 0 18 39
35 80 35 22 0 29 5 32 23 2 18 12 24 56 31 32 5 52 14 52 22 0 22 35 34 99 34
57 0 61 1 61 24 0 21 6 24 53 29 47 6 70 20 79 49 2 5 40 11 86 12 69 3 84 7
99 25 15 17 33 22 107 28 71 5 93 10 110 27 23 23 100 34 236 35 73 1 75 2 93
32 9 17 17 36 17 42 0 10 29 47 37 47 2 0 18 -7 34 -16z m894 -134 c37 -32 63
-40 138 -40 66 0 75 -2 80 -20 5 -20 9 -21 110 -24 39 -1 57 -16 57 -49 0 -15
7 -18 38 -16 88 5 110 0 114 -23 3 -20 10 -23 53 -26 55 -4 75 -15 75 -43 0
-14 -7 -19 -29 -19 -33 0 -44 -11 -35 -34 10 -26 62 -20 75 8 6 13 19 26 28
29 34 9 82 -6 98 -29 9 -15 25 -24 40 -24 14 0 41 -13 60 -30 18 -16 44 -30
58 -30 17 0 25 -6 27 -22 2 -19 11 -24 48 -28 37 -4 47 -10 58 -32 8 -17 21
-28 33 -28 11 0 24 -11 31 -25 8 -19 19 -25 42 -25 38 0 53 -9 57 -35 2 -10
15 -22 29 -25 15 -4 26 -15 30 -30 4 -16 14 -26 29 -28 13 -2 25 -12 28 -22 3
-10 18 -20 34 -24 16 -3 37 -15 46 -27 10 -12 24 -27 31 -33 7 -6 27 -23 43
-38 16 -16 36 -28 44 -28 7 0 15 -10 17 -22 2 -16 11 -24 29 -26 21 -2 28 -10
33 -33 6 -33 15 -43 64 -78 17 -12 32 -29 32 -37 0 -8 5 -14 10 -14 6 0 10 -9
10 -19 0 -12 9 -21 25 -25 20 -5 25 -13 25 -36 0 -25 4 -30 25 -30 21 0 25 -5
25 -30 0 -35 -17 -39 -56 -14 -20 14 -30 15 -49 5 -29 -13 -61 -26 -90 -36
-18 -7 -17 -9 10 -20 17 -7 55 -16 85 -20 30 -4 69 -15 86 -25 17 -10 64 -23
105 -30 41 -7 89 -21 107 -31 18 -11 44 -19 57 -19 28 0 41 -30 25 -60 -17
-31 -2 -90 26 -100 17 -7 24 -20 30 -56 5 -34 12 -48 25 -51 23 -6 34 -44 21
-70 -14 -27 -4 -43 28 -43 37 0 53 -27 37 -61 -9 -18 -22 -25 -50 -27 -21 -2
-44 1 -50 6 -17 14 -149 24 -166 13 -27 -18 -4 -41 41 -41 48 0 61 -7 71 -32
3 -10 13 -18 21 -18 16 0 23 -17 31 -74 5 -46 9 -51 30 -42 12 4 16 16 14 38
-3 43 9 78 26 78 16 0 35 -30 35 -57 0 -10 11 -31 24 -46 15 -18 27 -47 31
-79 5 -33 15 -58 28 -68 18 -15 24 -44 36 -192 1 -5 7 -8 15 -8 16 0 24 -35
33 -147 5 -66 11 -93 30 -120 22 -32 23 -43 21 -136 -3 -99 -4 -102 -27 -105
-34 -5 -40 12 -34 94 7 82 -1 124 -22 124 -20 0 -29 -41 -20 -95 7 -53 0 -85
-21 -85 -13 0 -13 -2 0 -16 9 -8 16 -24 16 -34 0 -24 29 -40 72 -40 22 0 37
-7 46 -20 6 -11 32 -25 56 -31 42 -10 44 -13 51 -55 3 -24 3 -48 0 -54 -3 -5
-25 -10 -48 -10 -70 0 -88 -29 -31 -51 24 -8 25 -12 22 -91 l-3 -83 -45 3
c-64 3 -110 -6 -110 -23 0 -12 15 -15 70 -15 59 0 79 -7 68 -22 -5 -8 25 -48
36 -48 20 0 36 -24 27 -39 -12 -18 -131 -27 -160 -11 -18 9 -29 9 -52 0 -32
-13 -35 -20 -18 -37 6 -6 16 -37 22 -69 15 -72 33 -81 42 -20 4 25 13 53 20
63 42 56 57 -110 17 -179 -15 -26 -24 -68 -31 -135 -8 -79 -14 -101 -31 -115
-17 -14 -20 -28 -20 -92 0 -71 -1 -76 -24 -82 -21 -5 -25 -14 -31 -62 -10 -84
-15 -100 -35 -105 -13 -3 -20 -19 -25 -56 -7 -55 -25 -72 -51 -51 -11 10 -13
24 -8 56 12 82 -28 121 -43 42 -7 -36 -13 -43 -35 -46 -20 -2 -27 2 -32 22 -6
23 -11 26 -51 26 -53 0 -56 -10 -15 -40 17 -12 30 -27 30 -33 0 -7 10 -17 22
-22 13 -6 25 -19 27 -30 4 -26 19 -35 58 -35 25 0 32 -5 35 -22 2 -13 15 -29
31 -36 23 -11 27 -19 27 -58 l0 -44 -49 0 c-44 0 -50 3 -53 23 -2 14 -11 23
-26 25 -13 2 -27 14 -32 28 -13 33 -63 35 -58 2 2 -15 11 -24 25 -26 13 -2 25
-14 32 -33 7 -19 17 -29 30 -29 19 0 21 -6 21 -54 0 -45 -3 -56 -19 -61 -13
-4 -21 -19 -26 -51 -5 -34 -12 -47 -28 -53 -15 -6 -25 -22 -32 -52 -8 -34 -16
-45 -33 -47 -16 -2 -22 -10 -22 -27 0 -24 -16 -36 -37 -27 -7 2 -13 11 -13 19
0 8 -13 19 -30 24 -19 7 -30 18 -30 30 0 14 -7 19 -26 19 -16 0 -42 14 -66 36
-42 38 -61 40 -66 6 -3 -16 3 -23 23 -28 15 -4 30 -17 35 -30 6 -14 18 -24 30
-24 12 0 22 -9 25 -23 5 -20 25 -33 77 -50 10 -3 19 -22 23 -48 6 -35 4 -45
-10 -55 -12 -9 -23 -10 -36 -4 -10 6 -31 10 -48 10 -33 0 -63 25 -81 71 -9 21
-19 29 -36 29 -23 0 -64 31 -64 49 0 5 -11 12 -25 15 -16 4 -25 13 -25 26 0
15 -9 22 -30 27 -19 3 -30 12 -30 22 0 22 -19 41 -41 41 -10 0 -21 9 -24 20
-5 15 -15 20 -41 20 -19 0 -37 1 -41 3 -5 1 -9 -8 -11 -19 -2 -13 -13 -25 -25
-28 -29 -8 -501 -8 -521 0 -24 9 -19 48 9 76 16 17 41 28 71 32 60 8 220 8
318 -1 69 -5 79 -9 87 -30 12 -33 62 -33 57 0 -2 12 -13 26 -25 32 -12 5 -24
19 -27 31 -4 13 -17 25 -31 28 -15 4 -30 17 -35 31 -6 15 -17 25 -29 25 -13 0
-21 8 -23 23 -2 16 -11 23 -30 25 -19 2 -28 9 -28 22 0 11 -11 22 -29 28 -37
13 -51 70 -26 108 21 33 42 30 81 -10 19 -19 44 -36 56 -38 15 -2 24 -11 26
-25 2 -14 12 -25 27 -29 14 -3 26 -16 29 -30 5 -19 13 -24 36 -24 42 0 42 37
1 53 -17 6 -32 21 -36 34 -4 16 -13 23 -30 23 -20 0 -25 5 -25 25 0 21 -5 25
-29 25 -23 0 -30 5 -33 23 -2 14 -11 23 -25 25 -21 3 -23 9 -23 63 0 59 20
119 40 119 6 0 10 18 10 40 0 46 21 130 32 130 4 0 8 9 8 19 0 40 89 45 114 6
9 -14 27 -27 41 -31 14 -3 25 -14 27 -27 2 -16 11 -23 31 -25 23 -3 27 0 27
22 0 22 -4 26 -30 26 -25 0 -30 4 -30 25 0 22 -4 25 -35 25 -27 0 -35 4 -35
18 0 9 -13 26 -29 36 -58 39 -78 107 -41 141 19 17 21 17 38 2 10 -10 28 -17
40 -17 12 0 30 -10 40 -21 9 -12 23 -27 30 -33 7 -6 28 -26 47 -43 19 -18 39
-33 44 -33 5 0 11 -10 13 -22 2 -17 11 -24 31 -26 16 -2 27 -9 27 -19 0 -8 13
-20 29 -26 16 -6 32 -19 35 -30 2 -10 14 -21 26 -24 12 -3 26 -16 31 -29 4
-13 16 -24 24 -24 9 0 33 -16 53 -35 20 -19 47 -35 60 -35 15 0 22 -6 22 -20
0 -12 9 -22 23 -25 12 -4 27 -16 32 -28 6 -12 20 -23 33 -25 22 -3 23 -2 20
75 -3 71 -5 78 -24 81 -16 2 -23 -4 -28 -22 -6 -26 -29 -35 -41 -16 -10 16 5
50 21 50 10 0 14 12 14 41 0 58 28 139 46 132 8 -3 14 -18 14 -33 0 -57 12
-90 32 -90 17 0 19 7 16 73 -3 66 -5 72 -25 75 -21 3 -23 9 -23 65 1 34 10 98
21 142 11 44 25 115 31 159 9 67 8 80 -5 94 -14 14 -18 13 -41 -2 -21 -13 -26
-25 -26 -56 0 -21 5 -42 10 -45 6 -3 10 -19 10 -36 l0 -29 -75 0 c-70 0 -76
-2 -84 -24 -10 -25 -48 -36 -128 -36 -25 0 -45 -6 -50 -14 -17 -28 -54 -36
-162 -36 -105 0 -111 1 -111 20 0 11 -8 23 -17 27 -57 20 -111 113 -65 113 31
0 40 30 29 99 -12 77 -8 81 84 81 56 0 67 3 72 18 5 20 44 32 107 32 51 0 70
8 70 31 0 16 8 19 43 19 68 0 117 11 117 27 0 7 -8 16 -17 19 -10 3 -26 10
-35 15 -10 5 -24 9 -32 9 -8 0 -19 6 -23 13 -9 16 -87 37 -136 37 -25 0 -36 5
-40 19 -3 15 -18 20 -75 25 -58 6 -72 11 -77 27 -4 10 -13 19 -20 19 -8 0 -27
11 -42 24 -22 20 -26 27 -15 37 6 7 12 23 12 35 0 22 17 34 50 34 9 0 23 6 29
14 10 12 6 15 -21 21 -67 14 -78 28 -78 100 0 52 4 69 20 85 17 17 19 28 14
58 -3 20 -15 43 -25 51 -63 45 56 83 145 46 20 -8 36 -19 36 -24 0 -4 34 -14
75 -20 54 -9 79 -18 89 -32 10 -14 31 -22 81 -28 42 -5 72 -14 79 -23 7 -10
43 -21 90 -29 62 -9 80 -16 84 -31 4 -18 35 -24 66 -12 12 5 13 11 6 25 -6 10
-13 53 -17 96 -4 49 -11 81 -19 86 -8 4 -14 17 -14 27 0 10 -4 22 -10 25 -5 3
-10 44 -10 89 0 74 -2 84 -19 89 -15 4 -22 20 -31 81 -9 51 -17 76 -26 76 -8
0 -14 7 -14 15 0 8 -4 23 -9 33 -5 9 -14 35 -21 57 -7 22 -18 43 -24 47 -6 4
-15 31 -21 60 -8 44 -14 54 -32 56 -21 3 -23 0 -23 -51 l0 -55 -47 -7 c-57 -8
-64 -12 -57 -29 4 -10 26 -14 81 -13 52 0 77 -4 83 -13 12 -20 1 -40 -23 -40
-39 0 -87 -23 -87 -42 0 -15 -9 -18 -55 -18 -52 0 -55 -1 -55 -25 0 -20 -5
-25 -24 -25 -49 0 -82 -12 -91 -33 -7 -16 -23 -24 -57 -30 -33 -6 -49 -15 -53
-28 -4 -13 -16 -19 -36 -19 -27 0 -29 3 -29 36 0 58 14 74 65 74 41 0 45 2 45
25 0 24 -3 25 -60 25 -66 0 -81 13 -63 53 35 77 34 127 -2 127 -21 0 -18 17 5
30 11 6 20 21 20 34 0 25 21 36 71 36 14 0 38 11 53 25 19 18 38 25 66 25 36
0 70 19 70 40 0 13 39 23 66 16 39 -10 33 -52 -11 -66 -34 -11 -41 -23 -29
-54 5 -13 9 -12 27 5 18 17 30 19 74 13 l53 -6 0 51 0 51 34 0 c19 0 36 -6 38
-12 3 -9 17 -3 39 18 l35 30 -22 17 c-25 19 -109 23 -134 7 -18 -11 -40 5 -40
30 0 23 -15 28 -98 36 -37 3 -71 12 -77 18 -15 19 -52 28 -134 35 l-74 6 -14
39 c-19 56 -7 66 83 66 67 0 74 2 74 20 0 17 -8 19 -77 22 -69 3 -78 5 -81 23
-2 11 -8 30 -14 43 -11 22 -10 28 22 92 4 8 19 16 34 18 39 5 30 34 -14 47
-68 20 -76 36 -30 60 23 12 55 15 128 13 81 -3 97 -1 97 12 0 12 -15 15 -65
17 -36 0 -71 1 -77 2 -7 1 -13 12 -13 26 0 16 -7 28 -17 31 -35 11 -48 21 -51
43 -2 11 -8 21 -13 21 -5 0 -9 6 -9 14 0 8 -6 21 -12 28 -7 8 -18 23 -24 33
-7 12 -27 23 -50 27 -97 18 -107 21 -111 39 -7 26 -53 26 -53 0 0 -24 -14 -29
-67 -23 -34 3 -43 8 -43 23 0 13 -7 19 -23 19 -13 0 -38 15 -57 35 -19 19 -44
35 -56 35 -14 0 -25 8 -29 20 -3 11 -14 20 -24 20 -37 0 -81 22 -81 40 0 20
-19 30 -60 30 -17 0 -34 8 -42 19 -8 10 -32 24 -55 30 -23 6 -50 22 -61 36
-15 18 -30 24 -68 27 -42 3 -49 6 -52 26 -3 20 -9 22 -57 22 -46 0 -59 4 -87
30 -28 26 -40 30 -90 30 -44 0 -58 4 -58 14 0 25 -22 31 -140 36 -106 5 -116
7 -125 27 -7 16 -21 23 -57 28 -26 4 -51 4 -57 1 -11 -7 -91 22 -91 33 0 3 16
15 35 25 31 17 38 18 61 6 40 -22 78 11 40 35 -11 7 -22 6 -37 -3 -17 -11 -28
-10 -65 5 l-44 18 0 77 0 77 35 6 c19 3 52 8 72 11 21 3 42 8 46 11 16 10 -17
23 -59 23 -27 0 -47 6 -58 19 -16 17 -16 20 0 35 14 15 35 16 177 10 134 -5
166 -10 182 -24z m-2405 -1149 c0 -5 11 -22 24 -38 13 -15 27 -42 30 -60 10
-43 27 -55 77 -51 45 3 47 6 63 81 6 23 11 27 41 27 30 0 35 -4 41 -27 16 -76
18 -78 67 -81 42 -3 47 -1 61 27 9 16 16 37 16 46 0 9 6 18 14 21 8 3 20 19
26 35 7 16 16 29 20 29 23 0 29 -70 27 -330 l-2 -275 -36 -3 c-19 -2 -47 2
-62 7 -25 10 -27 15 -27 68 0 70 -17 61 -22 -12 l-3 -50 -45 -8 c-55 -10 -192
0 -201 15 -5 7 -15 5 -30 -6 -29 -20 -102 -21 -118 -2 -9 10 -11 52 -7 143 8
186 8 199 6 293 -3 100 7 160 26 160 8 0 14 -4 14 -9z m1778 -28 c7 -21 13
-56 14 -78 3 -39 4 -40 42 -43 59 -5 93 13 100 54 3 19 9 50 12 69 5 29 11 35
30 35 19 0 24 -5 25 -27 4 -117 12 -441 11 -495 0 -73 -13 -108 -40 -108 -23
0 -52 50 -52 87 0 19 -9 37 -26 52 -37 32 -54 14 -54 -60 l0 -58 -55 -6 c-30
-4 -67 -5 -82 -2 -16 4 -43 9 -60 13 -23 4 -33 12 -33 25 0 32 -21 32 -33 0
-14 -37 -35 -46 -70 -30 -31 14 -37 42 -37 163 0 84 2 93 25 115 30 28 32 51
5 58 -15 4 -20 14 -20 42 0 20 7 45 15 55 19 26 19 65 0 72 -20 8 -19 23 2 46
33 36 63 18 63 -38 0 -64 42 -80 127 -48 40 16 43 19 43 55 0 42 15 89 28 89
5 0 14 -17 20 -37z m1272 -48 c0 -28 5 -56 12 -63 7 -7 40 -12 80 -12 77 0 88
10 88 79 0 43 9 55 34 45 12 -5 16 -20 16 -59 0 -58 7 -65 64 -65 54 0 85 21
92 60 14 79 20 95 39 95 14 0 22 -10 28 -35 4 -19 7 -41 7 -47 -2 -16 -2 -89
0 -105 0 -7 -4 -35 -9 -61 -8 -38 -8 -56 4 -84 16 -37 20 -173 9 -233 -8 -39
-20 -44 -89 -35 -45 5 -55 10 -55 25 0 10 5 22 10 25 25 15 1 69 -26 58 -16
-6 -19 -63 -4 -63 6 0 10 -9 10 -20 0 -14 -9 -21 -32 -25 -25 -4 -253 -2 -336
4 -18 1 -8 244 12 272 12 18 12 28 -1 75 -11 45 -12 61 -2 89 10 26 10 40 1
59 -6 14 -9 31 -7 38 26 75 26 74 41 54 8 -11 14 -42 14 -71z m1269 16 c19
-12 6 -41 -19 -41 -15 0 -20 7 -20 25 0 26 14 31 39 16z m-5265 -47 c23 -9 20
-44 -3 -44 -21 0 -31 17 -23 38 5 14 5 14 26 6z m3665 -678 c7 -8 23 -17 36
-20 l25 -6 1 -738 c1 -947 2 -923 -20 -939 -13 -8 -20 -31 -24 -75 -6 -61 -25
-128 -39 -138 -11 -9 -28 -59 -28 -84 0 -14 -9 -27 -24 -34 -16 -7 -25 -22
-29 -49 -4 -24 -17 -48 -32 -61 -14 -12 -25 -28 -25 -35 0 -8 -11 -19 -25 -25
-14 -6 -25 -19 -25 -27 0 -23 -30 -65 -46 -65 -8 0 -17 -7 -20 -15 -4 -8 -12
-15 -19 -15 -7 0 -15 -7 -19 -15 -3 -8 -17 -20 -32 -25 -14 -6 -28 -19 -31
-29 -3 -11 -15 -22 -26 -25 -12 -3 -26 -15 -32 -28 -8 -18 -20 -24 -55 -28
-36 -4 -46 -9 -48 -26 -3 -18 -12 -23 -59 -29 -42 -5 -56 -11 -60 -25 -6 -21
-28 -26 -167 -36 -68 -5 -92 -11 -104 -25 -25 -29 -112 -24 -112 6 0 8 -28 14
-88 18 -85 6 -152 22 -152 36 0 9 -82 31 -115 31 -18 0 -28 7 -35 25 -6 15
-17 25 -30 25 -11 0 -34 13 -51 29 -17 17 -43 31 -57 33 -19 2 -28 10 -30 26
-2 13 -14 27 -28 32 -13 5 -24 17 -24 26 0 8 -13 21 -30 27 -18 7 -30 19 -30
29 0 10 -11 24 -25 30 -14 6 -25 19 -25 29 0 9 -13 31 -29 48 -16 18 -31 42
-33 54 -2 12 -13 26 -25 32 -14 6 -24 22 -28 45 -10 59 -16 70 -34 70 -21 0
-31 36 -31 111 0 41 -3 49 -19 49 -23 0 -31 40 -31 163 0 90 -15 177 -31 177
-5 0 -9 307 -9 711 0 687 1 711 19 716 10 2 24 16 30 29 l11 24 979 0 c827 0
980 -2 990 -14z m-2989 -663 c0 -43 -22 -91 -44 -97 -12 -3 -37 -6 -57 -6 -66
0 -99 -11 -99 -32 0 -47 67 -67 85 -25 8 19 18 22 60 22 l50 0 3 -84 c3 -93
-1 -101 -55 -101 -61 0 -50 -37 12 -42 l40 -3 3 -57 c3 -52 1 -58 -16 -58 -11
0 -26 -9 -33 -21 -11 -15 -32 -23 -87 -31 -53 -9 -76 -17 -83 -30 -6 -12 -21
-18 -42 -18 -65 0 -110 -13 -114 -31 -5 -18 -15 -21 -115 -34 -39 -5 -48 -10
-48 -26 0 -12 7 -19 19 -19 10 0 33 -13 51 -30 17 -16 48 -32 68 -36 20 -4 43
-15 50 -26 7 -10 24 -18 36 -18 50 0 84 -13 94 -35 8 -18 22 -24 61 -30 41 -5
50 -11 53 -28 2 -18 11 -23 53 -27 l50 -5 1 -85 c1 -47 7 -98 13 -113 6 -16
11 -39 11 -53 0 -23 -3 -24 -61 -24 -57 0 -60 -1 -57 -22 3 -20 10 -23 55 -26
44 -3 52 -6 57 -26 3 -13 15 -26 26 -29 22 -6 27 -39 8 -54 -7 -6 -32 -8 -55
-5 -34 3 -42 8 -45 25 -2 18 -13 24 -55 31 -41 8 -53 14 -55 30 -3 18 -11 21
-54 24 -42 2 -53 7 -57 22 -6 22 -13 25 -69 35 -28 4 -37 11 -40 28 -3 19 -10
22 -60 25 -45 2 -58 7 -63 21 -6 19 -33 31 -68 31 -16 0 -98 75 -97 90 0 3 7
13 15 23 18 24 57 19 69 -9 10 -23 63 -44 110 -44 21 0 26 5 26 25 0 24 -3 25
-55 25 -48 0 -55 2 -55 20 0 16 -7 20 -36 20 -27 0 -43 7 -64 30 -15 17 -33
30 -38 30 -6 0 -17 7 -26 15 -13 13 -15 13 -22 -7 -4 -14 -1 -25 10 -33 9 -7
16 -23 16 -37 0 -13 5 -29 12 -36 9 -9 9 -18 0 -37 -24 -52 -6 -175 25 -175
15 0 20 -22 26 -113 4 -52 10 -74 26 -91 12 -12 21 -32 21 -43 0 -46 14 -86
31 -90 21 -6 25 -17 34 -94 5 -45 10 -58 26 -62 16 -4 19 -14 19 -61 0 -48 -3
-56 -19 -56 -15 0 -22 12 -32 50 -16 61 -43 67 -46 10 0 -19 -4 -54 -8 -77
l-8 -43 52 0 c48 0 74 9 111 36 8 6 38 15 65 19 28 4 64 17 81 30 21 16 48 25
80 27 40 2 51 7 59 26 5 12 17 22 25 22 33 0 90 22 90 34 0 12 61 36 92 36 8
0 29 7 46 16 51 25 67 16 70 -39 2 -37 0 -47 -13 -47 -19 0 -57 -21 -68 -37
-4 -7 -21 -13 -37 -13 -17 0 -30 -4 -30 -10 0 -5 -8 -10 -17 -10 -17 -1 -17
-1 0 -11 9 -5 39 -9 65 -7 44 3 47 5 47 31 -1 21 4 27 22 27 12 0 25 -4 28
-10 3 -5 17 -10 31 -10 14 0 26 -6 28 -12 2 -7 7 -27 13 -43 12 -39 7 -54 -23
-65 -40 -15 -29 -37 23 -46 43 -8 49 -13 62 -48 13 -35 13 -40 -2 -51 -10 -7
-36 -15 -58 -19 -29 -5 -43 -12 -46 -26 -4 -15 -16 -20 -57 -22 -43 -3 -51 -6
-54 -24 -4 -29 30 -34 183 -29 149 5 187 -2 195 -35 4 -16 14 -26 28 -28 30
-5 29 -40 -1 -47 -12 -3 -134 -5 -271 -3 -243 3 -248 3 -266 26 -15 18 -28 22
-75 22 -47 0 -58 -3 -62 -19 -4 -14 -18 -20 -63 -25 -32 -4 -61 -12 -63 -19
-6 -18 3 -37 19 -37 8 0 24 -11 36 -25 12 -14 27 -25 33 -25 15 0 35 43 35 75
0 34 13 31 27 -5 8 -22 18 -30 37 -30 14 0 32 -9 41 -22 12 -16 19 -19 22 -10
16 42 21 43 335 40 267 -3 300 -5 309 -20 5 -9 29 -24 53 -33 31 -12 46 -24
48 -39 2 -13 11 -22 26 -24 14 -2 22 -10 22 -22 0 -10 12 -27 27 -38 33 -24
26 -59 -10 -46 -12 4 -140 8 -284 9 -164 1 -266 5 -275 12 -7 5 -26 13 -43 16
-52 10 -85 26 -85 42 0 9 -11 20 -25 25 -15 6 -25 17 -25 30 0 15 -7 20 -25
20 -23 0 -25 -4 -25 -44 0 -41 2 -45 28 -48 16 -2 31 -12 36 -24 5 -11 19 -25
30 -30 12 -5 22 -20 24 -36 2 -20 9 -28 23 -28 11 0 28 -5 38 -12 15 -9 30 -8
71 5 44 14 96 17 316 17 169 0 264 4 264 10 0 15 36 12 50 -5 7 -8 27 -15 45
-15 46 0 65 -9 65 -30 0 -28 -45 -31 -358 -30 -399 2 -362 4 -362 -24 0 -18 6
-26 22 -28 14 -2 24 -12 28 -28 4 -18 14 -26 33 -28 15 -2 33 -13 41 -24 8
-11 29 -23 48 -27 21 -4 37 -15 43 -29 6 -14 22 -26 39 -29 16 -3 31 -14 33
-24 5 -18 12 -21 64 -33 14 -3 30 -16 36 -29 8 -18 22 -26 52 -31 28 -4 46
-14 57 -31 12 -18 25 -25 48 -25 20 0 37 -7 46 -20 8 -12 31 -23 52 -27 21 -3
38 -11 38 -18 0 -17 42 -34 105 -41 43 -5 55 -11 55 -24 0 -17 51 -30 122 -30
21 0 31 -6 38 -25 11 -29 46 -40 99 -31 53 8 103 -3 108 -25 4 -15 19 -18 106
-21 152 -5 138 -23 130 171 -8 214 -9 211 97 211 43 0 82 -5 85 -10 4 -7 13
-7 25 0 21 12 337 13 344 2 7 -12 15 -773 9 -856 -5 -70 -8 -76 -28 -76 -27 0
-85 28 -85 41 0 20 -41 8 -50 -15 -7 -18 -19 -25 -54 -30 -59 -9 -85 -1 -118
38 -23 27 -29 30 -47 19 -11 -7 -27 -13 -35 -13 -7 0 -16 -9 -19 -21 -8 -29
-61 -23 -65 8 -2 12 -12 25 -23 28 -10 4 -22 17 -25 31 -5 20 -12 24 -44 24
-23 0 -48 8 -64 21 -29 23 -117 38 -222 39 -55 0 -62 2 -72 25 -11 24 -15 25
-111 25 l-99 0 -7 31 c-7 30 -9 31 -43 25 -20 -3 -54 -3 -74 1 -31 4 -38 10
-38 29 0 21 -5 23 -62 26 -54 3 -64 6 -73 25 -6 15 -21 25 -45 29 -60 10 -70
15 -70 35 0 16 -7 19 -52 19 -52 1 -88 16 -88 39 0 6 -10 11 -23 11 -12 0 -39
14 -59 30 -20 17 -50 33 -67 36 -20 4 -31 13 -31 23 0 12 -15 21 -50 30 -37
10 -50 18 -50 31 0 12 -10 21 -30 25 -21 5 -30 13 -30 26 0 12 -7 19 -19 19
-28 0 -79 32 -85 52 -2 11 -14 18 -30 18 -17 0 -26 5 -26 16 0 9 -13 21 -30
27 -21 8 -30 18 -30 33 0 16 -8 23 -30 28 -24 4 -30 11 -30 31 0 20 -5 25 -24
25 -15 0 -27 7 -31 18 -3 11 -16 24 -29 30 -14 6 -26 21 -28 34 -2 15 -11 24
-25 26 -12 2 -25 12 -28 23 -4 10 -13 19 -21 19 -8 0 -22 16 -30 35 -9 23 -21
35 -34 35 -15 0 -20 7 -20 25 0 20 -5 25 -25 25 -20 0 -27 6 -31 29 -4 20 -13
31 -27 33 -14 2 -24 14 -29 36 -5 18 -17 38 -28 45 -14 8 -20 23 -20 50 0 34
3 38 23 35 14 -2 23 -11 25 -25 3 -17 10 -23 28 -23 22 0 24 3 24 55 l0 55 50
0 c28 0 50 2 50 4 0 2 3 11 6 20 5 13 -3 16 -46 16 -43 0 -53 -3 -57 -20 -4
-17 -14 -20 -54 -20 -26 0 -51 -4 -54 -10 -3 -5 -14 -10 -25 -10 -10 0 -20 -6
-23 -14 -7 -17 -105 -32 -118 -19 -6 6 -7 29 -2 59 l9 49 47 -3 c45 -3 47 -2
47 22 0 29 -5 30 -80 16 -59 -11 -80 -2 -80 34 0 12 -9 25 -22 31 -33 14 -35
42 -4 56 17 8 26 20 26 35 0 21 -4 23 -64 21 -41 -1 -69 3 -80 12 -21 17 -20
30 2 38 9 4 29 19 44 35 19 20 36 28 61 28 27 0 37 5 42 20 4 11 18 22 33 25
57 12 77 21 80 38 3 14 -4 17 -45 17 -26 0 -65 3 -85 6 -34 6 -37 5 -40 -22
-2 -21 -9 -30 -26 -32 -18 -3 -25 3 -33 27 -7 19 -18 31 -29 31 -14 0 -19 11
-25 55 -4 37 -11 55 -20 55 -22 0 -35 33 -35 87 0 52 -6 66 -31 75 -12 5 -19
29 -27 88 -5 46 -14 85 -19 89 -19 14 -33 66 -33 124 0 45 -6 73 -22 102 -24
44 -39 155 -31 223 l6 42 53 0 54 0 0 35 c0 19 1 38 3 43 1 4 -13 8 -30 10
-19 2 -33 -1 -33 -7 0 -6 -9 -11 -19 -11 -11 0 -23 -4 -26 -10 -8 -13 -112
-13 -120 1 -4 5 -4 21 -1 35 5 17 13 24 31 24 21 0 25 5 25 28 0 15 4 32 9 38
13 12 -9 41 -34 45 -17 4 -20 12 -20 68 l0 64 40 23 c22 12 41 29 43 38 3 13
-7 16 -56 16 -78 0 -92 6 -92 40 0 41 10 60 30 60 11 0 22 5 25 10 3 6 17 10
31 10 13 0 24 4 24 10 0 15 68 40 109 40 41 0 61 14 61 43 0 17 5 19 44 13 34
-5 55 -2 88 13 57 27 120 43 192 48 45 4 59 9 63 23 5 19 42 30 104 30 29 0
45 6 61 25 19 22 30 25 85 25 57 0 64 2 74 24 11 24 39 35 109 40 55 4 57 5
63 25 5 21 27 28 105 30 50 1 52 0 52 -26z m274 -348 c3 -8 17 -20 31 -25 26
-10 33 -38 13 -58 -23 -23 10 -42 72 -42 65 0 93 18 70 45 -7 9 -10 25 -6 40
6 24 10 26 54 23 40 -3 47 -6 50 -26 5 -31 -14 -52 -47 -53 -23 -1 -22 -2 9
-11 19 -6 61 -12 93 -15 66 -6 93 7 77 37 -16 30 -11 50 14 60 13 5 29 17 35
27 9 17 11 17 25 -2 13 -16 15 -39 12 -115 -6 -124 -6 -104 0 -273 6 -145 2
-199 -15 -225 -6 -11 -16 -10 -49 4 -34 13 -42 21 -42 41 0 34 -21 103 -32
103 -4 0 -8 -8 -8 -17 0 -10 -7 -36 -14 -58 -11 -30 -22 -42 -47 -51 -47 -17
-82 -17 -129 2 -31 12 -40 22 -40 39 0 13 -4 27 -10 30 -5 3 -10 19 -10 36 0
46 -15 34 -29 -23 -7 -29 -15 -61 -18 -71 -5 -20 -68 -51 -83 -42 -18 11 -32
141 -26 240 8 125 9 171 4 265 -3 51 0 84 9 103 15 30 28 35 37 12z m3517 -31
c25 -12 28 -18 18 -30 -6 -8 -18 -14 -26 -14 -12 0 -14 -8 -9 -37 7 -43 7 -36
0 -121 -5 -58 -4 -64 15 -69 21 -5 30 -43 11 -43 -5 0 -10 -16 -10 -35 0 -19
5 -35 10 -35 6 0 10 -9 10 -20 0 -11 -4 -20 -9 -20 -9 0 -12 -12 -29 -103 -11
-59 -23 -73 -50 -58 -11 6 -22 17 -26 26 -3 8 -12 15 -21 15 -12 0 -15 13 -15
59 0 41 -5 62 -16 72 -24 20 -34 -4 -34 -82 0 -73 -5 -79 -63 -79 -36 0 -97
38 -97 61 0 20 -23 27 -72 21 -32 -3 -38 -8 -38 -27 0 -13 -7 -31 -16 -40 -15
-15 -18 -15 -33 0 -13 13 -16 40 -16 153 0 75 2 160 3 187 2 28 2 65 2 83 -1
17 -1 42 -1 55 0 12 -1 38 -2 57 -2 32 1 35 27 38 l29 4 -8 -57 -7 -56 89 3
88 3 -3 47 c-2 38 1 49 16 57 33 18 53 -7 50 -59 l-3 -45 80 0 80 0 5 55 c6
66 18 91 32 66 5 -9 23 -23 39 -32z m-3751 -845 c0 -11 -4 -18 -10 -14 -5 3
-7 12 -3 20 7 21 13 19 13 -6z m1104 -604 c19 -14 18 -15 -5 -23 -29 -11 -63
0 -67 22 -4 21 45 22 72 1z m1794 -7 c-3 -25 -34 -36 -50 -20 -17 17 -1 42 27
42 22 0 26 -4 23 -22z m-90 -64 c12 -20 22 -42 22 -49 0 -8 5 -17 10 -20 6 -3
10 -17 10 -31 0 -18 5 -24 21 -24 11 0 27 -7 35 -15 9 -8 32 -16 52 -16 23 -1
29 -3 15 -6 -14 -3 -25 -14 -29 -28 -7 -28 24 -105 43 -105 7 0 20 -11 29 -25
20 -30 40 -32 47 -5 4 16 14 20 46 20 23 0 41 -4 41 -8 0 -11 -55 -42 -74 -42
-9 0 -16 -6 -16 -14 0 -8 -8 -17 -18 -20 -10 -4 -28 -15 -41 -27 l-22 -20 -19
23 c-11 13 -19 28 -20 34 0 7 -9 14 -19 17 -12 3 -21 15 -23 33 -2 21 -9 30
-25 32 -16 2 -23 10 -23 25 0 12 -7 31 -15 41 -12 16 -19 18 -37 8 -13 -6 -32
-12 -43 -14 -13 -2 -21 -12 -23 -30 -2 -19 -10 -28 -25 -30 -20 -3 -23 -11
-29 -82 -4 -43 -9 -80 -11 -82 -2 -2 -25 -1 -50 2 -33 5 -48 12 -52 25 -3 10
-15 21 -26 24 -30 10 -25 53 7 61 23 6 25 10 19 43 -9 49 -11 51 -48 51 -18 0
-49 3 -69 6 -34 6 -38 10 -38 35 0 23 5 29 21 29 12 0 23 8 26 19 3 11 21 24
45 32 22 7 47 23 56 36 13 21 22 24 66 21 44 -3 51 -6 54 -25 2 -14 12 -25 26
-29 13 -3 27 -18 33 -35 15 -38 47 -36 51 2 2 19 -4 31 -22 43 -15 9 -26 26
-26 37 0 13 -8 23 -20 26 l-21 6 21 14 c11 8 20 24 20 37 0 49 36 49 68 0z
m-1624 0 c3 -8 14 -14 25 -14 11 0 23 -4 26 -10 3 -5 13 -10 21 -10 8 0 23 -9
34 -20 13 -13 33 -20 60 -20 33 0 42 -4 50 -24 5 -13 23 -28 41 -35 45 -15 79
-49 79 -78 0 -16 8 -27 25 -33 27 -10 30 -17 16 -39 -12 -19 -41 -6 -41 19 0
17 -6 20 -41 20 -22 0 -48 -4 -58 -10 -26 -13 -35 -67 -16 -93 8 -12 15 -30
15 -40 0 -9 7 -20 15 -23 8 -4 15 -15 15 -25 0 -14 -7 -19 -29 -19 -17 0 -33
5 -36 10 -4 6 -13 4 -22 -6 -13 -13 -27 -15 -67 -9 -60 8 -64 10 -48 35 15 25
15 51 0 117 -11 45 -16 53 -35 53 -13 0 -23 4 -23 9 0 5 -9 12 -19 16 -20 6
-20 6 0 26 10 10 19 28 19 38 0 12 9 21 25 25 20 5 25 13 25 36 0 25 -4 30
-24 30 -19 0 -25 -6 -28 -27 -2 -19 -10 -29 -28 -33 -21 -5 -25 -12 -25 -43 0
-31 -3 -37 -21 -37 -20 0 -44 -35 -44 -64 0 -8 -11 -17 -25 -20 -20 -5 -25
-13 -25 -36 0 -22 5 -30 18 -30 23 0 42 19 42 42 0 25 46 24 60 -2 6 -11 17
-20 24 -20 9 0 16 -19 21 -55 5 -47 10 -56 31 -61 13 -3 24 -14 24 -23 0 -9 9
-23 20 -31 11 -8 20 -22 20 -32 0 -10 14 -25 32 -34 30 -16 31 -17 13 -30 -40
-29 -145 -11 -145 25 0 5 -12 11 -27 14 -45 10 -100 68 -108 115 -3 22 -13 43
-21 46 -8 3 -14 12 -14 21 0 21 -17 19 -30 -5 -21 -39 -80 -19 -80 27 0 19 -5
23 -34 23 -39 0 -67 24 -40 34 8 3 29 6 45 6 22 0 29 -5 29 -20 0 -16 7 -20
30 -20 28 0 30 3 36 50 5 39 11 50 25 50 19 0 35 33 24 50 -3 5 -15 10 -26 10
-14 0 -19 7 -19 30 0 23 4 30 20 30 13 0 24 -10 30 -25 19 -50 60 -15 60 51 0
19 5 24 25 24 22 0 25 4 25 38 0 21 5 43 11 49 14 14 35 7 43 -13z m-234 -100
c0 -8 -7 -14 -15 -14 -15 0 -21 21 -9 33 10 9 24 -2 24 -19z m1886 -202 c7 -4
14 -18 15 -32 3 -17 11 -26 26 -28 19 -3 22 -11 25 -65 5 -70 -4 -97 -32 -97
-10 0 -22 -9 -25 -20 -3 -11 -13 -20 -20 -20 -8 0 -34 -13 -58 -30 -25 -16
-57 -30 -71 -30 -25 0 -26 3 -26 53 0 74 7 92 42 105 27 10 30 14 28 54 -5 94
-2 106 28 111 47 7 57 7 68 -1z m-386 -23 c0 -14 -5 -19 -17 -17 -26 5 -29 38
-4 38 15 0 21 -6 21 -21z m1574 -86 c26 -4 40 -12 44 -25 6 -25 42 -24 42 1 0
21 23 30 54 23 16 -4 17 -11 12 -48 -5 -41 -4 -44 18 -44 15 0 26 7 29 20 4
15 14 20 36 20 26 0 31 -4 31 -25 0 -20 5 -25 25 -25 20 0 25 -5 25 -24 0 -15
7 -27 19 -31 32 -10 35 -37 7 -58 -34 -24 -35 -57 -2 -57 18 0 25 6 28 23 2
16 11 23 31 25 27 3 28 2 25 -40 -2 -35 -8 -45 -29 -55 -15 -7 -30 -24 -33
-38 -4 -16 -13 -25 -26 -25 -15 0 -20 -7 -20 -24 0 -19 -6 -25 -27 -28 -20 -2
-29 -10 -33 -28 -4 -18 -13 -26 -33 -28 -21 -3 -27 -9 -27 -27 0 -17 -6 -25
-22 -27 -16 -2 -24 -11 -26 -30 -3 -21 -9 -27 -30 -30 -19 -2 -28 -10 -30 -25
-2 -15 -10 -23 -23 -23 -13 0 -24 -10 -30 -30 -6 -17 -18 -30 -27 -30 -10 0
-27 -11 -40 -25 -13 -13 -39 -27 -57 -31 -24 -4 -35 -13 -39 -30 -5 -17 -13
-24 -31 -24 -20 0 -25 -5 -25 -25 0 -21 -5 -25 -28 -25 -17 0 -34 -9 -46 -25
-10 -14 -36 -30 -57 -35 -23 -6 -40 -18 -44 -30 -4 -13 -19 -21 -50 -26 -35
-5 -45 -11 -47 -27 -2 -18 -13 -23 -55 -30 -47 -8 -53 -11 -53 -33 0 -22 -4
-24 -50 -24 -45 0 -52 -3 -60 -25 -8 -22 -15 -25 -59 -25 -46 0 -49 -2 -54
-30 -6 -30 -7 -30 -77 -30 -66 0 -71 -2 -80 -25 -8 -22 -15 -25 -61 -25 -44 0
-54 -4 -77 -30 -26 -29 -29 -30 -114 -30 -85 0 -88 -1 -94 -25 -6 -23 -11 -25
-58 -25 -28 0 -89 -3 -134 -7 -76 -5 -85 -8 -93 -30 -8 -21 -14 -23 -79 -23
-94 0 -112 16 -69 58 l30 29 -33 12 c-63 24 -63 23 -63 97 0 64 1 68 25 74 24
5 25 10 28 80 2 41 7 79 13 85 5 5 42 10 82 11 168 2 174 3 180 24 4 15 14 20
44 21 122 1 183 16 183 44 0 11 11 15 38 15 69 0 110 11 115 31 4 15 14 19 50
19 58 0 77 8 77 30 0 20 19 30 58 30 32 0 46 9 55 33 4 12 17 17 44 17 42 0
57 7 65 31 4 9 27 22 52 30 33 9 46 19 51 36 4 17 12 23 35 23 16 0 35 8 42
18 18 23 53 42 78 42 15 0 20 7 20 25 0 20 5 25 24 25 16 0 27 7 31 19 4 13
22 24 55 32 42 11 50 17 50 36 0 18 6 23 25 23 18 0 26 7 31 24 3 15 14 26 27
28 13 2 23 13 27 28 4 19 13 26 38 28 26 3 32 8 32 28 0 17 5 24 20 24 16 0
20 7 20 35 0 23 -5 35 -14 35 -20 0 -87 -29 -102 -44 -10 -11 -66 -12 -262 -8
-153 3 -261 1 -278 -5 -16 -5 -35 -8 -41 -6 -20 7 -15 41 7 48 11 3 20 15 20
26 0 12 12 24 35 33 23 10 35 22 35 35 0 13 8 21 23 23 14 2 23 11 25 25 2 16
11 23 35 26 55 7 550 7 591 0z m-546 -263 c259 0 302 -4 302 -30 0 -10 -8 -22
-17 -26 -10 -4 -167 -10 -349 -12 -291 -3 -332 -2 -343 12 -22 26 -6 46 36 46
21 1 52 7 68 14 19 8 38 10 53 5 13 -5 125 -9 250 -9z"/>
<path d="M5930 9610 c0 -14 7 -20 24 -20 23 0 41 22 29 34 -4 3 -17 6 -30 6
-16 0 -23 -6 -23 -20z"/>
<path d="M6030 9609 c0 -20 4 -21 56 -16 31 3 59 9 62 12 12 12 -24 25 -70 25
-42 0 -48 -3 -48 -21z"/>
<path d="M5736 9566 c-23 -11 -25 -14 -11 -19 24 -10 123 -8 129 2 7 11 -38
31 -67 30 -12 0 -35 -6 -51 -13z"/>
<path d="M5521 9506 c-9 -11 -8 -15 5 -20 43 -16 133 2 119 25 -10 15 -111 11
-124 -5z"/>
<path d="M5441 9456 c-9 -10 -9 -16 -1 -21 17 -10 37 12 24 25 -8 8 -15 6 -23
-4z"/>
<path d="M6042 9398 c-8 -8 -9 -15 -1 -25 13 -15 49 -18 49 -3 0 6 8 10 18 10
11 0 8 5 -12 15 -34 18 -39 18 -54 3z"/>
<path d="M5170 9391 c0 -14 38 -24 66 -17 40 10 27 26 -21 26 -25 0 -45 -4
-45 -9z"/>
<path d="M5945 9390 c-8 -13 15 -24 27 -12 6 6 4 11 -6 15 -8 3 -18 2 -21 -3z"/>
<path d="M5050 9337 c0 -33 6 -36 51 -23 45 14 52 28 17 38 -49 13 -68 9 -68
-15z"/>
<path d="M5752 9343 c-10 -4 -10 -8 -1 -19 15 -18 105 -18 138 0 l23 13 -32 7
c-37 7 -109 7 -128 -1z"/>
<path d="M5587 9289 c-27 -16 -3 -39 42 -39 35 0 82 22 71 33 -12 12 -96 16
-113 6z"/>
<path d="M4950 9269 c0 -19 4 -21 31 -15 17 3 38 6 45 6 8 0 14 7 14 15 0 11
-12 15 -45 15 -39 0 -45 -3 -45 -21z"/>
<path d="M4880 9225 c0 -20 5 -25 25 -25 20 0 25 5 25 25 0 20 -5 25 -25 25
-20 0 -25 -5 -25 -25z"/>
<path d="M5438 9244 c-5 -4 -8 -16 -8 -26 0 -15 8 -18 49 -18 49 0 72 13 55
30 -13 12 -87 23 -96 14z"/>
<path d="M4770 9166 c0 -21 -6 -25 -32 -28 -25 -2 -34 -8 -36 -25 -3 -20 1
-23 32 -23 32 0 36 3 36 25 0 22 4 25 38 25 39 0 62 14 62 37 0 9 -16 13 -50
13 -46 0 -50 -2 -50 -24z"/>
<path d="M5318 9184 c-5 -4 -8 -16 -8 -26 0 -14 8 -18 33 -18 34 0 77 23 65
35 -10 10 -82 18 -90 9z"/>
<path d="M5213 9133 c-7 -2 -13 -13 -13 -24 0 -16 7 -19 44 -19 50 0 68 16 41
37 -19 13 -49 16 -72 6z"/>
<path d="M4647 9073 c-4 -3 -7 -15 -7 -25 0 -13 8 -18 30 -18 25 0 30 4 30 25
0 20 -5 25 -23 25 -13 0 -27 -3 -30 -7z"/>
<path d="M5094 9065 c-8 -21 2 -45 20 -45 22 0 60 35 52 48 -10 17 -66 15 -72
-3z"/>
<path d="M4550 9000 c0 -23 38 -28 58 -8 20 20 14 28 -23 28 -28 0 -35 -4 -35
-20z"/>
<path d="M4990 8995 c0 -21 -5 -25 -30 -25 -26 0 -30 -4 -30 -26 0 -22 4 -25
28 -22 19 2 28 9 30 25 3 17 12 23 53 28 39 6 49 11 49 26 0 16 -7 19 -50 19
-47 0 -50 -2 -50 -25z"/>
<path d="M4498 8969 c-22 -12 -24 -47 -4 -55 24 -9 58 15 54 39 -3 25 -25 32
-50 16z"/>
<path d="M4858 8913 c-19 -3 -30 -12 -34 -29 -4 -17 -13 -24 -29 -24 -23 0
-40 -24 -29 -41 9 -15 42 -10 56 9 18 25 51 42 83 42 22 0 26 4 23 23 -3 23
-20 28 -70 20z"/>
<path d="M4430 8891 c0 -14 -8 -21 -27 -23 -22 -2 -29 -9 -31 -30 -2 -18 -11
-28 -28 -32 -34 -9 -33 -46 1 -46 18 0 25 5 25 19 0 13 9 20 30 25 25 5 30 10
30 36 0 25 4 30 25 30 18 0 25 5 25 20 0 15 -7 20 -25 20 -18 0 -25 -5 -25
-19z"/>
<path d="M4286 8731 c-4 -7 -5 -15 -2 -18 9 -9 19 4 14 18 -4 11 -6 11 -12 0z"/>
<path d="M4206 8676 c-3 -14 -15 -28 -26 -31 -11 -3 -23 -17 -26 -31 -4 -17
-13 -24 -29 -24 -18 0 -24 -6 -27 -27 -2 -20 -9 -29 -25 -31 -18 -3 -23 -10
-23 -33 0 -39 36 -41 50 -3 6 14 19 28 30 31 11 3 21 9 21 14 1 5 3 14 4 19 1
6 3 15 4 20 0 6 12 10 26 10 20 0 25 5 25 25 0 20 5 25 25 25 21 0 25 5 25 30
0 25 -4 30 -24 30 -17 0 -26 -7 -30 -24z"/>
<path d="M3673 7804 c-2 -7 -2 -18 2 -24 7 -11 60 -12 88 -1 17 6 17 8 -5 18
-38 19 -79 22 -85 7z"/>
<path d="M3818 7774 c23 -16 52 -13 52 6 0 5 -17 10 -37 10 -37 0 -37 0 -15
-16z"/>
<path d="M3927 7737 c-8 -22 13 -37 54 -37 69 0 62 37 -8 47 -30 4 -41 1 -46
-10z"/>
<path d="M4078 7689 c-39 -15 -35 -23 18 -38 52 -16 77 -4 58 27 -13 21 -40
24 -76 11z"/>
<path d="M3750 7629 c-18 -8 -21 -13 -10 -17 8 -3 23 -13 34 -24 11 -10 24
-18 30 -18 5 0 0 -10 -12 -23 -16 -17 -22 -36 -22 -70 0 -49 8 -61 34 -51 12
5 16 20 16 61 0 53 0 54 28 51 25 -3 27 -6 30 -58 3 -73 10 -100 25 -100 7 0
17 10 22 23 6 12 20 23 33 25 30 5 32 52 2 52 -30 0 -26 38 5 50 26 10 29 17
19 44 -5 12 -20 16 -60 16 -40 0 -54 4 -54 14 0 8 -4 17 -8 20 -20 12 -89 15
-112 5z"/>
<path d="M4218 7629 c-33 -19 -9 -39 48 -39 46 0 54 3 54 19 0 30 -64 43 -102
20z"/>
<path d="M3501 7530 c-17 -10 -4 -100 14 -100 12 0 25 42 25 80 0 21 -21 32
-39 20z"/>
<path d="M4046 7522 c-15 -24 6 -42 49 -42 43 0 65 14 49 30 -14 14 -91 23
-98 12z"/>
<path d="M4177 7473 c-10 -3 -17 -12 -15 -21 4 -22 118 -31 118 -9 0 32 -45
45 -103 30z"/>
<path d="M3990 7396 c0 -22 4 -26 31 -26 26 0 30 3 27 23 -2 16 -11 23 -30 25
-24 3 -28 0 -28 -22z"/>
<path d="M3730 7365 c-6 -8 -12 -36 -13 -62 -2 -43 0 -48 21 -51 21 -3 22 0
22 57 0 63 -10 81 -30 56z"/>
<path d="M4050 7340 c0 -15 7 -20 25 -20 18 0 25 5 25 20 0 15 -7 20 -25 20
-18 0 -25 -5 -25 -20z"/>
<path d="M3667 7098 c-5 -104 0 -125 26 -115 11 4 14 27 13 109 -1 86 -4 103
-17 106 -14 2 -17 -12 -22 -100z"/>
<path d="M3400 7010 c0 -11 5 -20 10 -20 6 0 10 9 10 20 0 11 -4 20 -10 20 -5
0 -10 -9 -10 -20z"/>
<path d="M6970 9610 c0 -16 7 -20 35 -20 28 0 35 4 35 20 0 16 -7 20 -35 20
-28 0 -35 -4 -35 -20z"/>
<path d="M7147 9566 c-9 -23 2 -26 85 -26 60 0 78 3 78 14 0 20 -23 26 -95 26
-45 0 -64 -4 -68 -14z"/>
<path d="M7381 9511 c-10 -6 -4 -12 23 -21 41 -13 66 -8 66 15 0 17 -64 21
-89 6z"/>
<path d="M7530 9450 c0 -21 22 -26 54 -14 23 9 1 34 -30 34 -17 0 -24 -6 -24
-20z"/>
<path d="M6978 9398 c-9 -23 3 -38 29 -38 20 0 24 4 21 23 -3 25 -42 37 -50
15z"/>
<path d="M7855 9350 c-11 -17 15 -40 46 -40 33 0 45 15 29 35 -14 17 -66 20
-75 5z"/>
<path d="M7115 9341 l-20 -9 20 -8 c11 -5 45 -9 75 -9 42 0 55 3 55 15 0 11
-14 16 -55 17 -30 1 -64 -2 -75 -6z"/>
<path d="M7320 9290 c-7 -4 -10 -15 -7 -24 5 -12 20 -16 57 -16 43 0 50 3 50
20 0 12 -7 20 -17 21 -10 1 -30 3 -44 4 -14 2 -31 0 -39 -5z"/>
<path d="M7965 9290 c-10 -17 14 -40 42 -40 36 0 29 44 -9 48 -14 2 -29 -2
-33 -8z"/>
<path d="M7478 9244 c-5 -4 -8 -16 -8 -26 0 -15 8 -18 55 -18 41 0 55 4 55 14
0 8 -4 17 -8 20 -17 10 -87 18 -94 10z"/>
<path d="M8057 9238 c-23 -18 -9 -33 38 -44 30 -7 41 -15 43 -32 3 -18 10 -22
37 -22 27 0 34 -4 37 -22 2 -18 12 -25 45 -32 32 -6 43 -14 47 -32 5 -17 13
-24 31 -24 20 0 25 -5 25 -25 0 -21 5 -25 30 -25 23 0 31 -5 36 -25 5 -19 13
-25 35 -25 16 0 32 0 36 -1 16 -1 13 21 -3 28 -10 4 -33 22 -52 40 -19 19 -43
33 -57 33 -20 0 -25 5 -25 25 0 21 -5 25 -30 25 -27 0 -30 3 -30 30 0 28 -3
30 -34 30 -26 0 -36 5 -41 20 -3 11 -18 23 -33 26 -48 10 -52 13 -52 39 0 22
-4 25 -33 25 -18 0 -41 -6 -50 -12z"/>
<path d="M7594 9175 c-10 -24 6 -35 52 -35 36 0 44 3 44 19 0 30 -85 45 -96
16z"/>
<path d="M7704 9125 c-10 -24 6 -35 52 -35 40 0 44 2 44 25 0 23 -4 25 -45 25
-31 0 -47 -5 -51 -15z"/>
<path d="M7810 9061 c0 -25 6 -28 55 -32 37 -4 40 -2 40 21 0 23 -4 25 -47 28
-42 3 -48 1 -48 -17z"/>
<path d="M7910 9001 c0 -20 32 -34 56 -24 8 3 14 14 14 24 0 15 -7 19 -35 19
-28 0 -35 -4 -35 -19z"/>
<path d="M7994 8958 c-14 -23 67 -61 88 -40 5 5 7 19 3 31 -5 17 -15 21 -45
21 -21 0 -42 -5 -46 -12z"/>
<path d="M8090 8891 c0 -14 8 -21 28 -23 19 -2 28 -9 30 -24 2 -16 14 -25 40
-31 45 -12 62 -7 62 17 0 19 -8 23 -67 35 -19 4 -35 14 -38 26 -9 26 -55 26
-55 0z"/>
<path d="M8525 8900 c-9 -15 14 -40 36 -40 14 0 19 7 19 25 0 20 -5 25 -24 25
-14 0 -28 -5 -31 -10z"/>
<path d="M8582 8838 c7 -20 48 -23 48 -4 0 11 -9 16 -26 16 -16 0 -24 -5 -22
-12z"/>
<path d="M8650 8780 c0 -13 7 -20 20 -20 13 0 20 -7 20 -19 0 -11 7 -27 16
-36 14 -14 19 -14 30 -3 20 20 6 58 -21 58 -14 0 -25 7 -28 20 -3 11 -12 20
-21 20 -9 0 -16 -8 -16 -20z"/>
<path d="M8750 8678 c0 -7 4 -19 9 -27 12 -19 43 -6 39 16 -4 21 -48 31 -48
11z"/>
<path d="M8807 8627 c-8 -22 17 -51 37 -44 25 10 17 51 -10 55 -12 2 -24 -3
-27 -11z"/>
<path d="M8866 8561 c-3 -5 1 -11 9 -15 15 -6 29 7 18 18 -9 9 -21 8 -27 -3z"/>
<path d="M8653 8338 c2 -9 25 -13 67 -13 42 0 65 4 68 13 3 9 -15 12 -68 12
-53 0 -71 -3 -67 -12z"/>
<path d="M8860 8286 c0 -26 1 -26 74 -26 41 0 77 4 80 8 13 21 -16 35 -83 40
l-71 5 0 -27z"/>
<path d="M9058 8243 c-26 -6 -22 -22 8 -33 35 -14 104 -13 145 2 l34 12 -30
12 c-29 13 -121 17 -157 7z"/>
<path d="M8730 8130 c-13 -8 -12 -11 5 -24 25 -19 92 -20 134 -3 l32 13 -26
12 c-31 14 -124 16 -145 2z"/>
<path d="M8922 8063 c3 -15 16 -18 81 -21 72 -3 77 -1 77 18 0 18 -6 20 -81
20 -71 0 -80 -2 -77 -17z"/>
<path d="M9144 8019 c-12 -21 17 -34 76 -34 69 0 99 18 56 35 -36 13 -123 13
-132 -1z"/>
<path d="M9094 7745 c-8 -33 1 -56 21 -49 19 8 19 41 0 60 -13 13 -15 12 -21
-11z"/>
<path d="M8700 7725 c0 -18 5 -25 19 -25 26 0 44 23 29 38 -22 22 -48 14 -48
-13z"/>
<path d="M8585 7680 c-4 -7 -3 -16 3 -22 14 -14 47 -6 47 12 0 18 -40 26 -50
10z"/>
<path d="M9427 7604 c-4 -4 -7 -29 -7 -55 0 -33 5 -49 15 -53 20 -7 27 11 23
65 -3 40 -16 58 -31 43z"/>
<path d="M9156 7590 c-2 -8 -7 -32 -10 -52 -4 -33 -2 -38 15 -38 15 0 19 7 19
38 0 43 -16 77 -24 52z"/>
<path d="M8762 7578 c-26 -26 -13 -38 43 -38 52 0 55 1 55 25 0 23 -4 25 -43
25 -24 0 -48 -5 -55 -12z"/>
<path d="M8647 7523 c-4 -3 -7 -15 -7 -25 0 -15 8 -18 50 -18 47 0 50 2 50 25
0 23 -4 25 -43 25 -24 0 -47 -3 -50 -7z"/>
<path d="M9472 7403 c3 -72 5 -78 26 -81 21 -3 22 -1 22 77 0 80 0 81 -25 81
-26 0 -26 0 -23 -77z"/>
<path d="M9201 7433 c-6 -21 -11 -55 -11 -76 0 -34 3 -38 23 -35 20 3 22 9 25
64 2 44 -1 64 -12 73 -12 10 -16 6 -25 -26z"/>
<path d="M9262 7258 c-17 -17 -16 -144 2 -151 19 -8 36 35 36 92 0 53 -18 79
-38 59z"/>
<path d="M9537 7263 c-4 -3 -7 -42 -7 -85 0 -77 1 -79 23 -76 20 3 22 9 25 77
2 53 -1 77 -10 82 -16 11 -23 11 -31 2z"/>
<path d="M9310 6983 c0 -29 -6 -53 -16 -65 -14 -14 -14 -20 -4 -33 14 -16 95
-21 104 -6 10 15 -4 39 -25 44 -16 4 -19 14 -19 56 0 44 -3 51 -20 51 -17 0
-20 -7 -20 -47z"/>
<path d="M8642 6948 c7 -19 38 -22 38 -4 0 10 -9 16 -21 16 -12 0 -19 -5 -17
-12z"/>
<path d="M8798 6907 c-15 -12 -15 -14 3 -25 37 -23 73 -6 49 23 -15 18 -30 18
-52 2z"/>
<path d="M8925 6849 c-11 -17 15 -30 55 -27 23 2 35 8 35 18 0 19 -79 27 -90
9z"/>
<path d="M9080 6785 c0 -31 102 -34 108 -2 3 14 -5 17 -52 17 -43 0 -56 -4
-56 -15z"/>
<path d="M9253 6754 c-7 -3 -13 -14 -13 -25 0 -16 7 -19 55 -19 41 0 55 4 55
14 0 8 -3 17 -8 20 -13 8 -77 15 -89 10z"/>
<path d="M8677 6693 c-38 -6 -29 -26 16 -37 43 -11 76 7 56 30 -11 14 -19 15
-72 7z"/>
<path d="M9413 6689 c-16 -16 1 -39 28 -39 30 0 73 20 63 30 -17 16 -78 22
-91 9z"/>
<path d="M8838 6643 c-20 -3 -28 -10 -28 -24 0 -16 7 -19 48 -19 56 0 65 5 51
31 -10 19 -17 20 -71 12z"/>
<path d="M9567 6643 c-31 -8 -15 -38 22 -41 49 -5 64 3 51 28 -10 19 -33 23
-73 13z"/>
<path d="M8993 6583 c-26 -5 -31 -28 -7 -37 32 -12 84 -6 91 10 10 28 -23 39
-84 27z"/>
<path d="M9130 6510 c0 -18 7 -20 55 -20 48 0 55 2 55 20 0 18 -7 20 -55 20
-48 0 -55 -2 -55 -20z"/>
<path d="M9290 6470 c-13 -8 -12 -11 5 -24 23 -17 30 -18 74 -10 17 4 31 12
31 19 0 21 -83 32 -110 15z"/>
<path d="M9437 6413 c-14 -13 17 -33 53 -33 41 0 51 6 43 26 -5 14 -83 20 -96
7z"/>
<path d="M9067 6372 c-10 -4 -23 -19 -30 -32 -8 -16 -23 -26 -40 -28 -19 -2
-27 -9 -27 -23 0 -17 7 -19 63 -19 52 0 67 4 91 25 38 33 66 33 66 1 0 -29 16
-36 69 -29 51 7 54 2 55 -131 1 -83 4 -101 16 -101 18 0 27 104 11 133 -12 23
13 52 45 52 10 0 25 4 32 9 15 9 2 22 -31 34 -11 4 -21 16 -24 27 -4 16 -14
20 -53 20 -49 0 -104 21 -117 45 -9 16 -100 28 -126 17z"/>
<path d="M8832 6252 c-38 -11 -30 -27 17 -30 54 -4 72 3 65 23 -6 15 -40 18
-82 7z"/>
<path d="M8634 6189 c-10 -17 17 -29 61 -27 29 2 41 8 43 21 3 14 -4 17 -47
17 -27 0 -53 -5 -57 -11z"/>
<path d="M9091 6137 c-9 -12 -8 -16 3 -20 21 -8 57 4 53 17 -6 17 -42 19 -56
3z"/>
<path d="M8968 6133 c-24 -6 -23 -15 5 -39 l22 -20 22 27 23 27 -23 6 c-12 3
-24 5 -27 5 -3 -1 -13 -3 -22 -6z"/>
<path d="M8767 6083 c-4 -3 -7 -15 -7 -25 0 -15 8 -18 43 -18 23 0 50 6 59 13
15 12 15 14 -3 25 -20 13 -81 16 -92 5z"/>
<path d="M8590 6010 c0 -17 7 -20 43 -20 23 0 48 4 56 9 25 16 1 31 -50 31
-42 0 -49 -3 -49 -20z"/>
<path d="M9537 5933 c-4 -3 -7 -42 -7 -85 0 -70 2 -78 19 -78 24 0 31 19 31
89 0 63 -20 98 -43 74z"/>
<path d="M9250 5877 c0 -59 14 -84 36 -62 27 26 13 115 -17 115 -16 0 -19 -8
-19 -53z"/>
<path d="M9482 5710 c-16 -26 -15 -108 2 -125 22 -22 36 2 36 61 0 80 -13 103
-38 64z"/>
<path d="M8700 5571 c0 -16 6 -21 26 -21 33 0 30 33 -4 38 -17 3 -22 -2 -22
-17z"/>
<path d="M8761 5541 c-22 -14 -8 -46 22 -49 21 -3 27 -9 27 -27 0 -19 6 -24
33 -27 24 -2 33 -8 35 -25 2 -14 10 -23 21 -23 19 0 71 -46 71 -61 0 -5 9 -9
20 -9 13 0 24 -10 30 -25 7 -17 17 -25 34 -25 19 0 25 -6 28 -27 2 -22 9 -29
30 -31 15 -2 30 -11 33 -21 3 -11 19 -21 36 -25 54 -11 68 14 19 34 -16 7 -30
18 -30 25 0 7 -20 23 -45 35 -29 14 -45 28 -45 40 0 12 -8 20 -22 22 -15 2
-24 11 -26 26 -3 16 -12 25 -33 29 -16 3 -29 12 -29 20 0 7 -8 16 -17 19 -55
18 -72 28 -76 45 -3 12 -17 22 -36 25 -21 5 -31 12 -31 25 0 22 -31 41 -49 30z"/>
<path d="M9420 5495 c0 -48 2 -55 20 -55 18 0 20 7 20 55 0 48 -2 55 -20 55
-18 0 -20 -7 -20 -55z"/>
<path d="M8590 5075 c0 -22 4 -25 40 -25 47 0 53 19 13 38 -40 18 -53 15 -53
-13z"/>
<path d="M8680 5031 c0 -25 14 -41 36 -41 19 0 24 -5 24 -25 0 -20 6 -27 29
-31 20 -4 31 -14 35 -30 5 -17 13 -24 32 -24 21 0 25 4 22 23 -2 16 -11 23
-30 25 -24 3 -28 8 -28 33 0 26 -3 29 -30 29 -25 0 -30 4 -30 25 0 21 -5 25
-30 25 -16 0 -30 -4 -30 -9z"/>
<path d="M8860 4851 c0 -17 6 -21 31 -21 24 0 30 4 27 18 -2 10 -14 18 -31 20
-22 3 -27 -1 -27 -17z"/>
<path d="M4965 8201 c-21 -4 -31 -13 -33 -28 -2 -13 -12 -23 -24 -25 -47 -7
-50 -68 -3 -68 22 0 25 4 25 35 l0 35 55 0 c51 0 55 2 55 24 0 21 -19 38 -38
35 -4 -1 -20 -4 -37 -8z"/>
<path d="M5040 8121 c0 -21 22 -33 45 -25 20 8 19 30 -1 38 -28 11 -44 6 -44
-13z"/>
<path d="M4840 8006 c0 -20 5 -36 10 -36 6 0 10 13 10 29 0 17 -4 33 -10 36
-6 4 -10 -8 -10 -29z"/>
<path d="M6457 8203 c-22 -4 -28 -9 -25 -26 2 -14 11 -23 26 -25 12 -2 28 -12
35 -23 8 -13 23 -19 46 -19 33 0 33 0 26 37 -10 57 -31 67 -108 56z"/>
<path d="M6380 8135 c-19 -23 -8 -50 23 -53 19 -2 27 -9 27 -23 0 -25 33 -22
38 4 2 12 -3 17 -17 17 -15 0 -21 6 -21 23 0 22 -16 47 -31 47 -4 0 -12 -7
-19 -15z"/>
<path d="M7922 8179 c-6 -24 -15 -35 -30 -37 -16 -3 -22 -10 -22 -29 0 -24 2
-25 43 -18 23 4 67 8 97 9 84 4 82 4 70 25 -5 11 -10 31 -10 46 0 23 -3 26
-37 24 -21 0 -52 2 -70 6 -30 7 -32 5 -41 -26z"/>
<path d="M6250 7556 c-5 -13 -14 -27 -19 -31 -7 -4 -11 -61 -11 -156 0 -124 3
-151 15 -155 8 -4 15 -16 15 -28 0 -13 5 -47 11 -77 8 -40 17 -58 32 -65 12
-5 24 -20 27 -34 4 -16 14 -26 28 -28 12 -2 28 -12 36 -23 11 -17 17 -18 38
-8 19 8 31 8 46 0 31 -17 122 -14 122 3 0 8 13 17 29 21 20 4 31 14 35 31 4
13 13 24 21 24 9 0 20 11 25 24 5 14 18 30 30 36 19 10 20 19 20 250 l0 240
-245 0 -245 0 -10 -24z m160 -41 c6 -8 14 -32 17 -54 5 -33 2 -40 -15 -45 -29
-10 -93 4 -99 20 -8 22 6 64 21 64 7 0 19 7 26 15 16 19 34 19 50 0z m231 -9
c6 -13 20 -27 30 -29 11 -3 19 -14 19 -24 0 -27 -73 -52 -101 -35 -10 7 -26
12 -35 12 -25 0 -13 44 14 48 14 2 22 10 22 22 0 17 12 27 33 29 4 1 12 -10
18 -23z m-117 -142 c9 -3 16 -15 16 -25 0 -11 5 -28 12 -38 9 -15 8 -22 -5
-35 -16 -16 -71 -21 -101 -10 -25 10 -19 55 11 86 27 29 39 33 67 22z m-105
-168 c7 -8 11 -34 9 -58 l-3 -43 -50 0 -50 0 -3 52 c-3 47 -1 52 20 56 46 9
66 7 77 -7z m235 2 c22 -71 8 -108 -39 -108 -36 0 -55 25 -48 63 8 44 21 57
55 57 16 0 30 -6 32 -12z"/>
<path d="M5598 6543 c-4 -260 -3 -267 28 -282 14 -6 24 -19 24 -32 0 -27 57
-79 87 -79 12 0 25 -4 28 -10 3 -5 37 -10 75 -10 38 0 72 5 75 10 3 6 19 10
36 10 24 0 29 4 29 25 0 20 5 25 25 25 21 0 27 6 32 31 4 19 14 34 25 37 10 2
21 14 23 26 3 11 4 120 3 241 l-3 220 -242 3 -241 2 -4 -217z m165 122 c10
-69 3 -78 -55 -73 -27 3 -51 8 -54 11 -3 3 -3 24 1 47 7 44 26 58 76 59 24 1
27 -4 32 -44z m225 33 c7 -7 12 -20 12 -30 0 -10 7 -18 15 -18 9 0 15 -9 15
-24 0 -22 -6 -26 -44 -31 -24 -4 -54 -4 -66 0 -20 6 -21 12 -16 48 4 23 12 47
18 54 13 16 50 17 66 1z m-108 -168 c16 -10 15 -76 -2 -97 -16 -19 -62 -16
-82 6 -9 10 -19 34 -23 54 -5 31 -3 36 18 40 42 8 74 7 89 -3z m-116 -166 c20
-53 -7 -110 -48 -98 -49 15 -89 93 -53 107 30 13 95 7 101 -9z m241 4 c31 -14
32 -25 0 -50 -14 -11 -25 -25 -25 -33 0 -16 -25 -26 -45 -19 -23 9 -41 80 -25
99 15 18 59 20 95 3z"/>
<path d="M6254 6748 c-28 -13 -34 -50 -34 -214 0 -117 2 -133 20 -154 13 -15
20 -37 20 -66 0 -34 7 -51 36 -86 54 -65 71 -78 98 -78 14 0 28 -4 31 -10 9
-15 124 -12 170 4 21 8 43 23 48 34 5 12 19 22 31 24 16 2 22 11 24 36 2 24 8
32 22 32 10 0 22 4 25 10 3 5 6 111 7 236 0 182 -2 228 -13 235 -20 12 -459
10 -485 -3z m172 -62 c3 -13 4 -38 2 -57 l-3 -34 -55 0 -55 0 1 48 c0 56 12
67 66 67 31 0 39 -4 44 -24z m237 -6 c6 -16 15 -30 19 -30 4 0 8 -11 8 -24 0
-18 -7 -25 -31 -30 -48 -9 -66 -7 -83 10 -37 37 -7 104 46 104 24 0 32 -6 41
-30z m-123 -195 c0 -65 -11 -74 -71 -56 -38 11 -39 13 -39 56 0 47 5 51 78 54
l32 1 0 -55z m-110 -159 c0 -61 -5 -65 -67 -58 -39 4 -41 6 -45 41 -6 67 -2
71 58 71 l54 0 0 -54z m233 36 c15 -16 15 -21 2 -38 -8 -10 -15 -27 -15 -36 0
-14 -8 -18 -36 -18 -62 0 -101 74 -51 98 35 17 82 14 100 -6z"/>
<path d="M6906 6734 l-26 -27 0 -182 c0 -167 2 -183 19 -199 11 -10 23 -36 26
-58 4 -23 14 -42 23 -46 22 -8 36 -23 45 -44 3 -10 22 -20 44 -24 21 -4 43
-11 50 -16 12 -10 46 -8 163 9 47 7 55 11 58 31 2 14 10 22 23 22 14 0 22 11
30 45 6 25 17 45 24 45 7 0 16 8 20 18 11 28 5 383 -7 406 -23 43 -34 45 -254
46 l-211 0 -27 -26z m180 -48 c3 -13 4 -38 2 -57 l-3 -34 -55 0 -55 0 -3 43
c-4 56 10 72 64 72 38 0 44 -3 50 -24z m228 -26 c8 -59 3 -70 -28 -70 -88 0
-106 26 -60 87 18 24 33 33 53 33 27 0 29 -3 35 -50z m-115 -137 c5 -10 6 -36
2 -58 -6 -38 -8 -40 -43 -39 -60 2 -68 9 -68 58 0 48 5 53 67 55 21 1 35 -5
42 -16z m-111 -177 c2 -15 1 -39 -2 -52 -6 -21 -12 -24 -56 -24 l-49 0 -6 44
c-4 25 -4 50 0 56 4 6 28 10 58 8 49 -3 52 -5 55 -32z m226 18 c3 -8 3 -33 0
-55 -6 -36 -9 -39 -38 -39 -57 0 -100 75 -58 99 28 17 89 13 96 -5z"/>
<path d="M6238 5919 c-16 -9 -18 -29 -18 -178 0 -154 2 -170 20 -191 14 -16
20 -37 20 -67 0 -36 4 -46 19 -50 11 -3 25 -18 31 -34 8 -17 20 -29 31 -29 11
0 19 -7 19 -15 0 -28 39 -37 147 -33 94 3 107 5 123 25 10 13 30 27 44 33 18
6 26 17 26 32 0 13 11 35 25 50 l25 27 0 221 0 220 -247 0 c-150 0 -255 -5
-265 -11z m190 -95 c3 -59 -6 -68 -68 -58 -35 6 -38 9 -44 44 -10 62 -1 71 58
68 l51 -3 3 -51z m233 40 c16 -14 16 -19 2 -52 -17 -40 -29 -52 -55 -52 -33 0
-57 79 -32 104 20 20 63 20 85 0z m-118 -158 c18 -14 24 -46 8 -46 -5 0 -11
-13 -14 -30 -5 -23 -12 -30 -29 -30 -36 0 -78 42 -78 78 0 26 4 31 28 35 51 8
67 6 85 -7z m-130 -150 c20 -15 22 -54 5 -91 -13 -30 -44 -33 -53 -6 -3 11
-16 21 -28 23 -44 6 -31 72 16 81 37 7 41 7 60 -7z m253 -26 c10 -11 7 -20
-12 -43 -13 -16 -24 -33 -24 -38 0 -17 -32 -9 -37 10 -2 10 -16 24 -29 30 -34
15 -30 38 13 60 39 20 63 15 89 -19z"/>
<path d="M4128 6910 c-23 -14 -13 -37 20 -43 33 -6 134 23 129 38 -5 13 -127
18 -149 5z"/>
<path d="M3977 6858 c-65 -23 5 -58 77 -38 56 15 60 35 9 44 -47 7 -51 7 -86
-6z"/>
<path d="M3815 6797 c-29 -22 -8 -37 49 -37 37 0 58 5 67 16 10 13 10 17 -2
25 -21 13 -93 11 -114 -4z"/>
<path d="M3657 6754 c-4 -4 -7 -16 -7 -26 0 -17 7 -19 58 -16 49 3 57 6 57 23
0 17 -8 20 -50 23 -28 2 -54 0 -58 -4z"/>
<path d="M3497 6693 c-4 -3 -7 -15 -7 -25 0 -15 8 -18 54 -18 40 0 55 4 60 16
3 9 4 20 0 25 -6 10 -97 12 -107 2z"/>
<path d="M4241 6689 c-19 -8 -21 -12 -11 -24 15 -19 84 -20 99 -2 24 30 -34
48 -88 26z"/>
<path d="M3330 6641 c0 -5 -3 -16 -6 -25 -5 -14 3 -16 53 -16 63 0 90 14 72
37 -13 15 -119 18 -119 4z"/>
<path d="M4087 6633 c-23 -26 -13 -33 49 -33 81 0 87 36 8 47 -30 4 -43 1 -57
-14z"/>
<path d="M3932 6578 c-18 -18 5 -38 42 -38 37 0 72 22 62 38 -9 16 -89 15
-104 0z"/>
<path d="M3767 6523 c-4 -3 -7 -12 -7 -20 0 -9 16 -13 55 -13 48 0 55 2 55 20
0 17 -7 20 -48 20 -27 0 -52 -3 -55 -7z"/>
<path d="M3613 6473 c-25 -10 -13 -32 21 -38 49 -10 71 -3 74 23 3 20 -1 22
-40 21 -24 0 -49 -3 -55 -6z"/>
<path d="M3440 6400 c0 -18 7 -20 54 -20 37 0 56 4 59 14 8 22 -2 26 -60 26
-46 0 -53 -2 -53 -20z"/>
<path d="M3806 6370 c-16 -5 -33 -15 -37 -21 -9 -15 -83 -39 -121 -39 -15 0
-33 -8 -40 -18 -8 -12 -31 -21 -61 -25 -42 -6 -77 -24 -77 -40 0 -3 29 -9 64
-12 61 -7 65 -9 71 -36 5 -20 13 -29 26 -29 17 0 19 7 19 60 0 60 0 60 29 60
16 0 31 -6 35 -15 3 -8 15 -15 26 -15 11 0 20 7 20 15 0 8 5 15 10 15 6 0 10
9 10 20 0 27 37 27 45 -1 6 -17 14 -20 53 -17 47 3 47 3 50 42 2 21 0 42 -5
46 -14 13 -86 19 -117 10z"/>
<path d="M3313 6354 c-11 -30 39 -44 79 -23 21 11 21 12 3 25 -26 19 -74 18
-82 -2z"/>
<path d="M3942 6243 c2 -14 15 -19 56 -21 28 -2 52 1 52 5 0 20 -27 33 -68 33
-36 0 -43 -3 -40 -17z"/>
<path d="M4060 6190 c0 -16 32 -28 84 -31 56 -4 75 14 31 31 -34 13 -115 13
-115 0z"/>
<path d="M4210 6132 c0 -14 9 -21 28 -25 15 -3 39 -9 55 -13 23 -5 27 -3 27
14 0 26 -4 28 -62 37 -44 7 -48 5 -48 -13z"/>
<path d="M3670 5985 c0 -87 3 -105 15 -105 12 0 15 17 15 89 0 91 -5 121 -21
121 -5 0 -9 -47 -9 -105z"/>
<path d="M4368 6078 c-15 -11 -14 -13 9 -25 35 -18 53 -16 53 6 0 29 -32 38
-62 19z"/>
<path d="M4068 6023 c-27 -7 -22 -20 10 -26 64 -13 67 -13 67 8 0 15 -7 20
-30 22 -16 0 -38 -1 -47 -4z"/>
<path d="M4154 5968 c-11 -17 26 -38 68 -38 31 0 38 4 38 19 0 28 -90 45 -106
19z"/>
<path d="M4273 5914 c-8 -21 5 -30 55 -38 42 -6 42 -6 42 24 0 29 -2 30 -45
30 -32 0 -47 -5 -52 -16z"/>
<path d="M3712 5743 c3 -72 5 -78 26 -81 21 -3 22 -1 22 77 0 80 0 81 -25 81
-26 0 -26 0 -23 -77z"/>
<path d="M3451 5763 c-6 -12 -11 -40 -11 -63 0 -34 3 -41 18 -38 20 4 28 60
14 98 l-9 24 -12 -21z"/>
<path d="M3777 5633 c-11 -10 -8 -72 4 -94 23 -44 53 32 33 85 -6 16 -26 21
-37 9z"/>
<path d="M3510 5571 c0 -11 -4 -23 -10 -26 -16 -10 -12 -45 6 -52 25 -9 35 11
28 55 -7 42 -24 58 -24 23z"/>
<path d="M3830 5430 c0 -43 3 -50 20 -50 17 0 20 7 20 50 0 43 -3 50 -20 50
-17 0 -20 -7 -20 -50z"/>
<path d="M3554 5436 c-3 -13 -4 -38 -2 -57 2 -26 8 -34 23 -34 16 0 21 8 23
43 2 28 -2 47 -12 57 -20 20 -25 19 -32 -9z"/>
<path d="M3602 5273 c3 -41 6 -48 26 -51 20 -3 22 0 22 47 0 48 -2 51 -26 51
-24 0 -25 -2 -22 -47z"/>
<path d="M4274 5245 c-12 -30 3 -45 38 -39 88 15 100 54 17 54 -35 0 -51 -4
-55 -15z"/>
<path d="M4154 5195 c-10 -25 4 -45 31 -45 14 0 25 4 25 9 0 5 10 13 22 17
l21 6 -24 14 c-32 18 -68 17 -75 -1z"/>
<path d="M4551 5136 c-27 -32 9 -45 68 -25 38 13 31 24 -20 33 -26 5 -40 2
-48 -8z"/>
<path d="M4004 5129 c-11 -18 12 -31 52 -27 27 2 40 8 42 21 3 14 -4 17 -42
17 -25 0 -48 -5 -52 -11z"/>
<path d="M3887 5093 c-4 -3 -7 -15 -7 -25 0 -15 8 -18 49 -18 54 0 76 21 41
40 -21 11 -73 13 -83 3z"/>
<path d="M4413 5090 c-34 -14 -28 -37 12 -44 41 -8 78 8 73 32 -4 20 -51 26
-85 12z"/>
<path d="M3767 5033 c-4 -3 -7 -15 -7 -25 0 -13 8 -18 30 -18 31 0 80 18 80
30 0 15 -91 26 -103 13z"/>
<path d="M4292 5029 c-36 -14 -20 -34 30 -37 35 -2 47 1 52 13 3 9 4 21 0 26
-7 11 -52 11 -82 -2z"/>
<path d="M4157 4970 c-7 -26 8 -32 59 -28 31 2 39 7 39 23 0 17 -8 20 -46 23
-40 3 -47 0 -52 -18z"/>
<path d="M4037 4923 c-4 -3 -7 -15 -7 -25 0 -13 8 -18 30 -18 31 0 80 18 80
30 0 16 -89 27 -103 13z"/>
<path d="M4430 4906 c0 -23 4 -26 33 -26 35 0 77 23 65 35 -4 4 -27 10 -53 12
-43 5 -45 5 -45 -21z"/>
<path d="M3897 4863 c-4 -3 -7 -12 -7 -20 0 -9 15 -13 50 -13 43 0 50 3 50 20
0 17 -7 20 -43 20 -24 0 -47 -3 -50 -7z"/>
<path d="M4274 4706 c-9 -24 3 -46 26 -46 17 0 21 5 18 27 -3 31 -34 44 -44
19z"/>
<path d="M4322 4633 c2 -10 13 -19 26 -21 17 -3 22 2 22 17 0 16 -6 21 -26 21
-19 0 -25 -5 -22 -17z"/>
<path d="M4050 4570 c0 -27 3 -31 23 -28 16 2 22 10 22 28 0 18 -6 26 -22 28
-20 3 -23 -1 -23 -28z"/>
<path d="M4383 4558 c3 -23 13 -47 22 -53 9 -5 37 -29 63 -52 50 -46 92 -66
111 -54 8 5 3 11 -14 19 -18 9 -25 19 -25 41 0 25 -4 30 -27 33 -20 2 -29 9
-31 26 -2 16 -10 22 -27 22 -18 0 -24 6 -27 28 -2 20 -9 28 -27 30 -23 4 -24
2 -18 -40z"/>
<path d="M4100 4521 c0 -37 19 -73 38 -69 17 4 18 14 7 66 -7 28 -45 31 -45 3z"/>
<path d="M4170 4415 c0 -8 9 -15 20 -15 11 0 20 7 20 15 0 8 -9 15 -20 15 -11
0 -20 -7 -20 -15z"/>
<path d="M4210 4360 c0 -24 4 -30 21 -30 14 0 24 -10 32 -30 8 -21 18 -30 34
-30 18 0 23 -6 23 -25 0 -21 5 -25 30 -25 50 0 39 34 -35 106 -72 72 -105 83
-105 34z"/>
<path d="M4602 4358 c2 -15 11 -24 26 -26 18 -3 22 1 22 22 0 21 -5 26 -26 26
-21 0 -25 -4 -22 -22z"/>
<path d="M4662 4298 c2 -17 11 -24 31 -26 15 -2 27 -9 27 -18 0 -8 20 -24 44
-36 25 -12 47 -30 49 -40 6 -21 52 -25 59 -5 9 23 -4 37 -33 37 -26 0 -29 4
-29 30 0 27 -3 30 -29 30 -23 0 -30 5 -33 23 -2 18 -10 23 -46 25 -40 3 -43 2
-40 -20z"/>
<path d="M4400 4191 c0 -5 6 -11 14 -14 8 -3 20 -18 28 -34 10 -22 21 -29 51
-31 28 -2 37 0 37 13 0 8 -11 20 -24 24 -13 5 -26 19 -29 30 -4 16 -13 21 -41
21 -20 0 -36 -4 -36 -9z"/>
<path d="M4880 4136 c0 -20 6 -25 44 -30 36 -6 45 -12 50 -31 5 -19 13 -25 35
-25 22 0 30 -6 35 -25 6 -23 11 -25 57 -25 43 0 50 3 47 17 -2 10 -10 19 -18
20 -82 10 -90 14 -90 38 0 20 -5 25 -26 25 -19 0 -28 7 -35 30 -10 27 -15 30
-55 30 -40 0 -44 -2 -44 -24z"/>
<path d="M4542 4078 c2 -15 11 -24 26 -26 18 -3 22 1 22 22 0 21 -5 26 -26 26
-21 0 -25 -4 -22 -22z"/>
<path d="M4600 4021 c0 -14 8 -21 28 -23 21 -2 28 -9 30 -29 3 -23 9 -28 47
-33 30 -5 44 -12 48 -26 3 -11 16 -20 33 -22 23 -2 30 -9 32 -31 3 -27 6 -28
50 -25 68 4 69 30 2 48 -36 10 -50 19 -50 31 0 12 -9 19 -27 21 -20 2 -29 9
-31 25 -2 16 -14 25 -40 33 -20 5 -43 10 -49 10 -7 0 -13 9 -13 20 0 16 -7 20
-30 20 -23 0 -30 -5 -30 -19z"/>
<path d="M5152 3968 c3 -20 10 -23 49 -26 35 -2 48 1 53 13 7 18 -29 35 -75
35 -26 0 -30 -3 -27 -22z"/>
<path d="M5260 3910 c0 -17 7 -20 50 -20 43 0 50 3 50 20 0 17 -7 20 -50 20
-43 0 -50 -3 -50 -20z"/>
<path d="M5380 3854 c0 -26 2 -26 45 -21 52 5 60 10 52 32 -5 10 -20 15 -52
15 -42 0 -45 -2 -45 -26z"/>
<path d="M4930 3800 c0 -16 7 -20 30 -20 23 0 30 4 30 20 0 16 -7 20 -30 20
-23 0 -30 -4 -30 -20z"/>
<path d="M5518 3814 c-14 -13 23 -35 54 -32 50 5 44 32 -7 36 -23 2 -44 0 -47
-4z"/>
<path d="M5033 3763 c-22 -8 -14 -32 12 -39 28 -7 75 2 75 15 0 18 -60 35 -87
24z"/>
<path d="M5677 3759 c-30 -18 -8 -29 58 -29 69 0 92 14 50 30 -34 13 -85 12
-108 -1z"/>
<path d="M5135 3700 c-11 -17 4 -27 57 -34 47 -7 71 5 50 26 -16 16 -98 22
-107 8z"/>
<path d="M5880 3696 c0 -8 5 -18 10 -21 13 -8 42 14 34 26 -9 15 -44 10 -44
-5z"/>
<path d="M5980 3696 c0 -16 34 -31 50 -21 22 14 10 35 -20 35 -19 0 -30 -5
-30 -14z"/>
<path d="M5345 3640 c-22 -4 -31 -8 -20 -9 11 0 31 -8 43 -17 25 -17 52 -13
52 10 0 11 -26 31 -33 25 -1 -1 -20 -5 -42 -9z"/>
<path d="M5486 3591 c-12 -19 7 -41 33 -41 38 0 55 19 33 36 -20 15 -58 18
-66 5z"/>
<path d="M5620 3531 c-37 -10 -9 -23 66 -29 44 -3 68 -1 79 8 13 11 13 15 3
21 -15 10 -112 10 -148 0z"/>
<path d="M5848 3483 c-33 -5 -36 -18 -9 -33 25 -13 88 -13 96 0 3 6 15 10 26
10 10 0 19 -4 19 -10 0 -15 46 -12 59 4 17 20 1 27 -56 25 -26 -1 -61 0 -78 3
-16 3 -42 4 -57 1z"/>
<path d="M4942 6450 c-6 -11 -12 -31 -12 -45 0 -24 3 -25 55 -25 53 0 55 1 55
28 0 15 -7 35 -14 45 -18 24 -68 22 -84 -3z"/>
<path d="M4874 6355 c-10 -25 4 -45 31 -45 21 0 25 5 25 30 0 25 -4 30 -25 30
-14 0 -28 -7 -31 -15z"/>
<path d="M5040 6340 c0 -23 5 -30 19 -30 28 0 47 26 31 45 -7 8 -21 15 -31 15
-14 0 -19 -7 -19 -30z"/>
<path d="M7983 6414 c-3 -8 -1 -20 5 -26 16 -16 42 -2 42 22 0 24 -38 28 -47
4z"/>
<path d="M7875 6348 c-2 -7 -1 -29 3 -48 6 -28 13 -35 40 -41 21 -4 35 -2 43
7 15 18 3 80 -17 88 -27 10 -64 7 -69 -6z"/>
<path d="M8092 6333 c4 -36 33 -39 33 -3 0 16 -6 26 -18 28 -15 3 -18 -2 -15
-25z"/>
<path d="M5830 4956 c0 -9 7 -16 16 -16 9 0 14 5 12 12 -6 18 -28 21 -28 4z"/>
<path d="M8533 4713 c-7 -2 -13 -15 -13 -28 0 -16 -7 -25 -25 -29 -16 -4 -25
-13 -25 -26 0 -15 7 -20 25 -20 18 0 25 5 25 20 0 14 7 20 23 20 29 0 47 18
47 47 0 17 -5 23 -22 22 -13 0 -29 -3 -35 -6z"/>
<path d="M8585 4598 c-43 -41 -65 -70 -65 -85 0 -17 -6 -23 -22 -23 -35 0 -68
-11 -68 -22 0 -5 -16 -28 -35 -51 -42 -49 -46 -77 -10 -77 18 0 25 5 25 20 0
16 7 20 30 20 27 0 30 3 30 29 0 23 5 30 23 33 14 2 23 11 25 25 2 15 11 23
30 25 18 2 28 10 32 28 4 15 14 26 27 28 14 2 23 13 27 33 4 21 11 29 26 29
15 0 20 7 20 25 0 40 -24 30 -95 -37z"/>
<path d="M8810 4465 c0 -20 -6 -27 -29 -31 -20 -4 -31 -14 -35 -29 -3 -13 -15
-27 -26 -30 -11 -4 -20 -15 -20 -27 0 -18 4 -20 38 -15 23 4 43 15 52 29 8 12
27 35 43 50 36 37 37 78 2 78 -20 0 -25 -5 -25 -25z"/>
<path d="M8295 4321 c-21 -4 -31 -13 -33 -29 -3 -17 -10 -22 -32 -22 -21 0
-29 -6 -34 -25 -4 -15 -14 -25 -24 -25 -23 0 -42 -19 -42 -42 0 -13 8 -18 30
-18 26 0 31 5 37 30 4 23 11 30 29 30 16 0 25 7 29 23 5 18 17 26 48 33 31 7
42 14 42 28 0 23 -9 26 -50 17z"/>
<path d="M8647 4313 c-4 -3 -7 -15 -7 -25 0 -12 -7 -18 -24 -18 -18 0 -25 -7
-29 -30 -4 -16 -12 -30 -20 -30 -19 0 -36 -20 -30 -36 8 -21 44 -17 50 6 3 11
12 20 20 20 16 0 43 24 43 38 0 5 11 15 25 22 34 18 35 60 2 60 -13 0 -27 -3
-30 -7z"/>
<path d="M8030 4135 c0 -18 -5 -25 -20 -25 -12 0 -32 -7 -46 -16 -32 -21 -16
-44 32 -44 31 0 34 3 34 30 0 26 3 30 29 30 35 0 62 27 40 41 -8 5 -26 9 -41
9 -23 0 -28 -4 -28 -25z"/>
<path d="M8468 4133 c-3 -23 -9 -29 -43 -35 -28 -6 -43 -15 -50 -31 -6 -13
-21 -23 -37 -25 -19 -2 -28 -10 -30 -25 -2 -16 -11 -23 -30 -25 -21 -3 -28 -9
-28 -26 0 -18 -8 -25 -37 -32 -32 -8 -65 -37 -53 -47 3 -2 24 -2 48 1 33 3 42
8 42 23 0 14 7 19 26 19 16 0 39 13 61 35 19 19 44 35 54 35 12 0 19 7 19 20
0 15 9 22 30 27 23 4 30 11 30 29 0 17 6 23 28 26 21 2 28 9 30 31 3 24 0 27
-27 27 -25 0 -30 -4 -33 -27z"/>
<path d="M7878 4043 c-10 -2 -18 -13 -18 -24 0 -25 55 -27 64 -2 6 14 -10 35
-24 32 -3 -1 -13 -3 -22 -6z"/>
<path d="M7757 3977 c-3 -8 -1 -20 3 -27 12 -20 84 -1 88 23 3 14 -4 17 -41
17 -28 0 -47 -5 -50 -13z"/>
<path d="M7640 3909 c0 -18 5 -20 47 -17 36 2 49 7 51 21 3 14 -4 17 -47 17
-45 0 -51 -3 -51 -21z"/>
<path d="M7519 3864 c-10 -13 -10 -17 2 -25 31 -20 109 -4 109 22 0 16 -8 19
-49 19 -32 0 -53 -5 -62 -16z"/>
<path d="M8088 3868 c-8 -22 3 -38 25 -38 32 0 51 15 44 34 -8 19 -63 22 -69
4z"/>
<path d="M7408 3823 c-30 -3 -38 -9 -38 -24 0 -16 7 -19 50 -19 37 0 52 4 57
16 5 14 -13 36 -27 32 -3 -1 -22 -3 -42 -5z"/>
<path d="M8021 3816 c-55 -20 -51 -36 9 -36 47 0 51 2 48 22 -4 27 -14 30 -57
14z"/>
<path d="M7916 3761 c-28 -19 -28 -19 -7 -31 35 -18 66 -9 66 20 0 31 -22 36
-59 11z"/>
<path d="M7203 3763 c-27 -10 -13 -33 20 -33 48 0 63 14 32 28 -28 13 -33 13
-52 5z"/>
<path d="M7036 3702 c-11 -19 13 -33 50 -30 27 2 40 8 42 21 3 14 -4 17 -42
17 -25 0 -47 -4 -50 -8z"/>
<path d="M7800 3691 c0 -23 28 -35 46 -20 24 20 16 39 -16 39 -23 0 -30 -5
-30 -19z"/>
<path d="M7705 3651 c-3 -6 -28 -11 -56 -11 -38 0 -49 -3 -49 -16 0 -13 5 -15
23 -9 12 4 42 8 67 9 32 1 45 5 45 15 0 18 -21 26 -30 12z"/>
<path d="M7453 3590 c-32 -13 -19 -37 20 -38 40 -2 62 11 54 32 -7 17 -39 20
-74 6z"/>
<path d="M7238 3533 c-41 -10 -4 -33 54 -33 15 0 39 5 55 11 22 8 24 12 13 19
-15 10 -90 11 -122 3z"/>
<path d="M7007 3480 c-56 -10 -54 -17 7 -31 45 -10 58 -10 71 1 12 10 13 16 4
26 -12 15 -24 16 -82 4z"/>
</g>
</svg>
